<svg xmlns="http://www.w3.org/2000/svg" xmlns:xlink="http://www.w3.org/1999/xlink" width="1000" zoomAndPan="magnify" viewBox="0 0 750 165.000002" height="220" preserveAspectRatio="xMidYMid meet" version="1.0"><defs><g/><clipPath id="6a78229ae5"><path d="M 538.84375 73.945312 L 655.140625 73.945312 L 655.140625 123.890625 L 538.84375 123.890625 Z M 538.84375 73.945312 " clip-rule="nonzero"/></clipPath></defs><g fill="#ffffff" fill-opacity="1"><g transform="translate(2.289592, 123.986917)"><g><path d="M 40.9375 1.34375 C 34 1.34375 27.65625 -0.113281 21.90625 -3.03125 C 16.164062 -5.957031 11.578125 -10.359375 8.140625 -16.234375 C 4.703125 -22.109375 2.984375 -29.3125 2.984375 -37.84375 C 2.984375 -45.039062 4.28125 -51.546875 6.875 -57.359375 C 9.476562 -63.171875 13.300781 -67.773438 18.34375 -71.171875 C 23.382812 -74.578125 29.46875 -76.28125 36.59375 -76.28125 C 40.257812 -76.28125 43.535156 -75.425781 46.421875 -73.71875 C 49.304688 -72.019531 51.394531 -69.851562 52.6875 -67.21875 L 54.609375 -74.828125 L 69.25 -74.828125 L 69.25 -44.109375 L 54.21875 -44.109375 L 54.21875 -45.65625 C 54.21875 -49.632812 53.300781 -52.890625 51.46875 -55.421875 C 49.644531 -57.960938 46.9375 -59.234375 43.34375 -59.234375 C 40.90625 -59.234375 38.671875 -58.300781 36.640625 -56.4375 C 34.617188 -54.570312 33.03125 -52.128906 31.875 -49.109375 C 30.71875 -46.097656 30.140625 -42.988281 30.140625 -39.78125 C 30.140625 -33.488281 31.710938 -28.554688 34.859375 -24.984375 C 38.003906 -21.421875 42.304688 -19.640625 47.765625 -19.640625 C 51.617188 -19.640625 55.195312 -20.28125 58.5 -21.5625 C 61.8125 -22.851562 64.523438 -24.238281 66.640625 -25.71875 L 67.703125 -24.84375 L 67.703125 -4.8125 C 63.722656 -2.5 59.515625 -0.894531 55.078125 0 C 50.648438 0.894531 45.9375 1.34375 40.9375 1.34375 Z M 40.9375 1.34375 "/></g></g></g><g fill="#ffffff" fill-opacity="1"><g transform="translate(74.992732, 123.986917)"><g><path d="M 4.328125 0 L 4.328125 -14.15625 L 12.609375 -14.15625 L 12.609375 -57.5 L 4.328125 -57.5 L 4.328125 -70.3125 L 35.15625 -73.390625 L 35.15625 -14.15625 L 42.375 -14.15625 L 42.375 0 Z M 4.328125 0 "/></g></g></g><g fill="#ffffff" fill-opacity="1"><g transform="translate(121.02201, 123.986917)"><g><path d="M 31.59375 0.859375 C 25.75 0.859375 20.675781 -0.210938 16.375 -2.359375 C 12.070312 -4.515625 8.765625 -7.582031 6.453125 -11.5625 C 4.140625 -15.539062 2.984375 -20.191406 2.984375 -25.515625 C 2.984375 -30.785156 4.109375 -35.363281 6.359375 -39.25 C 8.609375 -43.132812 11.769531 -46.117188 15.84375 -48.203125 C 19.914062 -50.285156 24.679688 -51.328125 30.140625 -51.328125 C 35.210938 -51.328125 39.675781 -50.332031 43.53125 -48.34375 C 47.382812 -46.351562 50.367188 -43.53125 52.484375 -39.875 C 54.609375 -36.21875 55.671875 -31.945312 55.671875 -27.0625 C 55.671875 -25.394531 55.410156 -23.789062 54.890625 -22.25 L 25.625 -22.25 C 25.625 -19.289062 26.726562 -16.925781 28.9375 -15.15625 C 31.15625 -13.394531 33.835938 -12.515625 36.984375 -12.515625 C 39.359375 -12.515625 41.972656 -12.929688 44.828125 -13.765625 C 47.691406 -14.609375 50.566406 -15.894531 53.453125 -17.625 L 54.21875 -17.34375 L 54.21875 -4.71875 C 51.007812 -2.851562 47.703125 -1.457031 44.296875 -0.53125 C 40.898438 0.394531 36.664062 0.859375 31.59375 0.859375 Z M 37.65625 -30.53125 L 37.65625 -31.5 C 37.65625 -33.738281 37.140625 -35.660156 36.109375 -37.265625 C 35.085938 -38.878906 33.582031 -39.6875 31.59375 -39.6875 C 29.925781 -39.6875 28.515625 -38.863281 27.359375 -37.21875 C 26.203125 -35.582031 25.625 -33.800781 25.625 -31.875 L 25.625 -30.53125 Z M 37.65625 -30.53125 "/></g></g></g><g fill="#ffffff" fill-opacity="1"><g transform="translate(181.014139, 123.986917)"><g><path d="M 22.640625 0 L 6.9375 -35.828125 L 0 -35.828125 L 0 -50.375 L 36.125 -50.375 L 36.125 -35.828125 L 30.921875 -35.828125 L 39.109375 -12.140625 L 48.15625 -35.828125 L 42.1875 -35.828125 L 42.1875 -50.375 L 67.703125 -50.375 L 67.703125 -35.828125 L 61.34375 -35.828125 L 46.609375 0 Z M 22.640625 0 "/></g></g></g><g fill="#ffffff" fill-opacity="1"><g transform="translate(250.732113, 123.986917)"><g><path d="M 31.59375 0.859375 C 25.75 0.859375 20.675781 -0.210938 16.375 -2.359375 C 12.070312 -4.515625 8.765625 -7.582031 6.453125 -11.5625 C 4.140625 -15.539062 2.984375 -20.191406 2.984375 -25.515625 C 2.984375 -30.785156 4.109375 -35.363281 6.359375 -39.25 C 8.609375 -43.132812 11.769531 -46.117188 15.84375 -48.203125 C 19.914062 -50.285156 24.679688 -51.328125 30.140625 -51.328125 C 35.210938 -51.328125 39.675781 -50.332031 43.53125 -48.34375 C 47.382812 -46.351562 50.367188 -43.53125 52.484375 -39.875 C 54.609375 -36.21875 55.671875 -31.945312 55.671875 -27.0625 C 55.671875 -25.394531 55.410156 -23.789062 54.890625 -22.25 L 25.625 -22.25 C 25.625 -19.289062 26.726562 -16.925781 28.9375 -15.15625 C 31.15625 -13.394531 33.835938 -12.515625 36.984375 -12.515625 C 39.359375 -12.515625 41.972656 -12.929688 44.828125 -13.765625 C 47.691406 -14.609375 50.566406 -15.894531 53.453125 -17.625 L 54.21875 -17.34375 L 54.21875 -4.71875 C 51.007812 -2.851562 47.703125 -1.457031 44.296875 -0.53125 C 40.898438 0.394531 36.664062 0.859375 31.59375 0.859375 Z M 37.65625 -30.53125 L 37.65625 -31.5 C 37.65625 -33.738281 37.140625 -35.660156 36.109375 -37.265625 C 35.085938 -38.878906 33.582031 -39.6875 31.59375 -39.6875 C 29.925781 -39.6875 28.515625 -38.863281 27.359375 -37.21875 C 26.203125 -35.582031 25.625 -33.800781 25.625 -31.875 L 25.625 -30.53125 Z M 37.65625 -30.53125 "/></g></g></g><g fill="#ffffff" fill-opacity="1"><g transform="translate(310.724227, 123.986917)"><g><path d="M 2.984375 -14.15625 L 9.046875 -14.15625 L 9.046875 -35.828125 L 2.984375 -35.828125 L 2.984375 -48.546875 L 31.59375 -51.328125 L 31.59375 -43.140625 C 33.070312 -45.523438 35.539062 -47.484375 39 -49.015625 C 42.46875 -50.554688 45.519531 -51.328125 48.15625 -51.328125 L 48.15625 -31.390625 C 44.5 -32.617188 41.484375 -33.234375 39.109375 -33.234375 C 36.085938 -33.234375 34.078125 -32.363281 33.078125 -30.625 C 32.085938 -28.894531 31.59375 -26.617188 31.59375 -23.796875 L 31.59375 -14.15625 L 39.109375 -14.15625 L 39.109375 0 L 2.984375 0 Z M 2.984375 -14.15625 "/></g></g></g><g fill="#ffffff" fill-opacity="1"><g transform="translate(361.0868, 123.986917)"><g><path d="M 2.984375 -16.5625 L 12.046875 -16.5625 L 12.046875 -58.265625 L 4.234375 -58.265625 L 4.234375 -74.9375 L 42.46875 -74.9375 C 48.757812 -74.9375 54.054688 -74.421875 58.359375 -73.390625 C 62.660156 -72.359375 66.078125 -70.398438 68.609375 -67.515625 C 71.148438 -64.628906 72.421875 -60.519531 72.421875 -55.1875 C 72.421875 -51.457031 71.34375 -48.210938 69.1875 -45.453125 C 67.039062 -42.691406 64.300781 -40.703125 60.96875 -39.484375 C 65.332031 -37.617188 68.554688 -35.191406 70.640625 -32.203125 C 72.734375 -29.222656 73.78125 -25.132812 73.78125 -19.9375 C 73.78125 -13.582031 71.289062 -8.671875 66.3125 -5.203125 C 61.332031 -1.734375 54.285156 0 45.171875 0 L 2.984375 0 Z M 38.71875 -44.6875 C 42.3125 -44.6875 44.957031 -45.179688 46.65625 -46.171875 C 48.363281 -47.171875 49.21875 -49.050781 49.21875 -51.8125 C 49.21875 -53.738281 48.625 -55.296875 47.4375 -56.484375 C 46.25 -57.671875 44.691406 -58.265625 42.765625 -58.265625 L 36.125 -58.265625 L 36.125 -44.6875 Z M 37.84375 -16.5625 C 41.632812 -16.5625 44.554688 -17.09375 46.609375 -18.15625 C 48.671875 -19.21875 49.703125 -21.414062 49.703125 -24.75 C 49.703125 -29.882812 46.554688 -32.453125 40.265625 -32.453125 C 38.847656 -32.453125 37.46875 -32.421875 36.125 -32.359375 L 36.125 -16.5625 Z M 37.84375 -16.5625 "/></g></g></g><g fill="#ffffff" fill-opacity="1"><g transform="translate(440.241746, 123.986917)"><g><path d="M 31.59375 0.859375 C 25.75 0.859375 20.675781 -0.210938 16.375 -2.359375 C 12.070312 -4.515625 8.765625 -7.582031 6.453125 -11.5625 C 4.140625 -15.539062 2.984375 -20.191406 2.984375 -25.515625 C 2.984375 -30.785156 4.109375 -35.363281 6.359375 -39.25 C 8.609375 -43.132812 11.769531 -46.117188 15.84375 -48.203125 C 19.914062 -50.285156 24.679688 -51.328125 30.140625 -51.328125 C 35.210938 -51.328125 39.675781 -50.332031 43.53125 -48.34375 C 47.382812 -46.351562 50.367188 -43.53125 52.484375 -39.875 C 54.609375 -36.21875 55.671875 -31.945312 55.671875 -27.0625 C 55.671875 -25.394531 55.410156 -23.789062 54.890625 -22.25 L 25.625 -22.25 C 25.625 -19.289062 26.726562 -16.925781 28.9375 -15.15625 C 31.15625 -13.394531 33.835938 -12.515625 36.984375 -12.515625 C 39.359375 -12.515625 41.972656 -12.929688 44.828125 -13.765625 C 47.691406 -14.609375 50.566406 -15.894531 53.453125 -17.625 L 54.21875 -17.34375 L 54.21875 -4.71875 C 51.007812 -2.851562 47.703125 -1.457031 44.296875 -0.53125 C 40.898438 0.394531 36.664062 0.859375 31.59375 0.859375 Z M 37.65625 -30.53125 L 37.65625 -31.5 C 37.65625 -33.738281 37.140625 -35.660156 36.109375 -37.265625 C 35.085938 -38.878906 33.582031 -39.6875 31.59375 -39.6875 C 29.925781 -39.6875 28.515625 -38.863281 27.359375 -37.21875 C 26.203125 -35.582031 25.625 -33.800781 25.625 -31.875 L 25.625 -30.53125 Z M 37.65625 -30.53125 "/></g></g></g><g fill="#ffffff" fill-opacity="1"><g transform="translate(500.233859, 123.986917)"><g><path d="M 31.59375 0.859375 C 25.75 0.859375 20.675781 -0.210938 16.375 -2.359375 C 12.070312 -4.515625 8.765625 -7.582031 6.453125 -11.5625 C 4.140625 -15.539062 2.984375 -20.191406 2.984375 -25.515625 C 2.984375 -30.785156 4.109375 -35.363281 6.359375 -39.25 C 8.609375 -43.132812 11.769531 -46.117188 15.84375 -48.203125 C 19.914062 -50.285156 24.679688 -51.328125 30.140625 -51.328125 C 35.210938 -51.328125 39.675781 -50.332031 43.53125 -48.34375 C 47.382812 -46.351562 50.367188 -43.53125 52.484375 -39.875 C 54.609375 -36.21875 55.671875 -31.945312 55.671875 -27.0625 C 55.671875 -25.394531 55.410156 -23.789062 54.890625 -22.25 L 25.625 -22.25 C 25.625 -19.289062 26.726562 -16.925781 28.9375 -15.15625 C 31.15625 -13.394531 33.835938 -12.515625 36.984375 -12.515625 C 39.359375 -12.515625 41.972656 -12.929688 44.828125 -13.765625 C 47.691406 -14.609375 50.566406 -15.894531 53.453125 -17.625 L 54.21875 -17.34375 L 54.21875 -4.71875 C 51.007812 -2.851562 47.703125 -1.457031 44.296875 -0.53125 C 40.898438 0.394531 36.664062 0.859375 31.59375 0.859375 Z M 37.65625 -30.53125 L 37.65625 -31.5 C 37.65625 -33.738281 37.140625 -35.660156 36.109375 -37.265625 C 35.085938 -38.878906 33.582031 -39.6875 31.59375 -39.6875 C 29.925781 -39.6875 28.515625 -38.863281 27.359375 -37.21875 C 26.203125 -35.582031 25.625 -33.800781 25.625 -31.875 L 25.625 -30.53125 Z M 37.65625 -30.53125 "/></g></g></g><path fill="#010100" d="M 676.375 22.722656 C 676.828125 23.09375 677.25 23.496094 677.667969 23.90625 C 677.75 23.980469 677.832031 24.054688 677.914062 24.132812 C 681.097656 27.128906 682.667969 31.441406 683.378906 35.652344 C 683.390625 35.730469 683.40625 35.808594 683.417969 35.890625 C 683.695312 37.546875 683.714844 39.183594 683.707031 40.855469 C 683.707031 41.0625 683.707031 41.269531 683.707031 41.476562 C 683.707031 41.976562 683.703125 42.476562 683.703125 42.976562 C 683.757812 42.90625 683.8125 42.835938 683.871094 42.765625 C 684.464844 42.011719 685.089844 41.304688 685.75 40.605469 C 685.84375 40.507812 685.9375 40.40625 686.035156 40.304688 C 688.621094 37.632812 692.140625 35.519531 695.605469 34.230469 C 695.6875 34.199219 695.769531 34.167969 695.851562 34.136719 C 696.363281 33.957031 696.84375 33.871094 697.386719 33.820312 C 696.878906 31.75 696.222656 29.84375 694.800781 28.214844 C 694.707031 28.109375 694.707031 28.109375 694.613281 28.003906 C 693.835938 27.167969 692.84375 26.742188 691.792969 26.339844 C 691.359375 26.117188 691.136719 25.84375 690.921875 25.414062 C 690.878906 24.878906 690.894531 24.539062 691.242188 24.121094 C 691.726562 23.792969 692.179688 23.699219 692.753906 23.796875 C 695.335938 24.582031 696.996094 26.242188 698.261719 28.578125 C 699.019531 30.035156 699.53125 31.640625 699.648438 33.28125 C 699.757812 33.257812 699.871094 33.234375 699.988281 33.214844 C 700.140625 33.183594 700.289062 33.15625 700.441406 33.125 C 700.550781 33.105469 700.550781 33.105469 700.664062 33.082031 C 701.871094 32.851562 703.070312 32.824219 704.292969 32.824219 C 704.378906 32.820312 704.464844 32.820312 704.554688 32.820312 C 709.84375 32.828125 709.84375 32.828125 711.824219 33.820312 C 711.820312 33.753906 711.816406 33.6875 711.816406 33.621094 C 711.796875 32.921875 711.886719 32.300781 712.058594 31.625 C 712.082031 31.523438 712.109375 31.425781 712.132812 31.324219 C 712.324219 30.578125 712.554688 29.878906 712.898438 29.1875 C 712.945312 29.089844 712.945312 29.089844 712.996094 28.992188 C 713.445312 28.078125 713.933594 27.25 714.625 26.492188 C 714.671875 26.441406 714.71875 26.390625 714.765625 26.335938 C 715.953125 25.035156 717.410156 23.933594 719.230469 23.839844 C 719.785156 23.859375 720.148438 23.941406 720.539062 24.347656 C 720.761719 24.734375 720.742188 25.09375 720.65625 25.523438 C 720.511719 25.9375 720.324219 26.082031 719.941406 26.265625 C 719.867188 26.304688 719.789062 26.34375 719.710938 26.382812 C 719.492188 26.484375 719.273438 26.582031 719.058594 26.679688 C 718.019531 27.15625 717.238281 27.710938 716.457031 28.539062 C 716.375 28.625 716.296875 28.707031 716.214844 28.792969 C 714.855469 30.363281 714.25 32.46875 713.871094 34.464844 C 713.964844 34.503906 714.0625 34.539062 714.164062 34.578125 C 716.476562 35.46875 718.628906 36.660156 720.550781 38.238281 C 720.605469 38.28125 720.664062 38.328125 720.722656 38.378906 C 726.109375 42.804688 729.292969 48.523438 729.980469 55.535156 C 730.476562 61.585938 728.792969 67.464844 724.875 72.125 C 724.800781 72.210938 724.722656 72.300781 724.644531 72.390625 C 724.5625 72.484375 724.484375 72.578125 724.398438 72.675781 C 723.90625 73.242188 723.394531 73.75 722.8125 74.222656 C 722.757812 74.269531 722.703125 74.316406 722.648438 74.363281 C 721.609375 75.230469 720.527344 76.003906 719.363281 76.703125 C 719.300781 76.742188 719.238281 76.78125 719.171875 76.820312 C 715.351562 79.082031 710.894531 79.910156 706.542969 80.363281 C 706.523438 80.46875 706.5 80.574219 706.480469 80.679688 C 705.96875 83.15625 705.085938 85.648438 703.957031 87.90625 C 703.914062 88 703.867188 88.089844 703.820312 88.183594 C 701.820312 92.238281 698.746094 96.164062 695.121094 98.898438 C 694.996094 98.996094 694.871094 99.09375 694.746094 99.191406 C 689.808594 103.039062 683.832031 105.214844 677.667969 106.007812 C 677.570312 106.019531 677.476562 106.035156 677.375 106.046875 C 672.5 106.679688 666.949219 106.347656 662.261719 104.824219 C 662.160156 104.792969 662.0625 104.761719 661.960938 104.726562 C 657.847656 103.386719 653.207031 101.09375 650.421875 97.640625 C 649.808594 97.257812 648.699219 97.539062 648.003906 97.613281 C 647.890625 97.625 647.777344 97.636719 647.660156 97.652344 C 647.296875 97.6875 646.9375 97.726562 646.578125 97.765625 C 646.214844 97.804688 645.855469 97.84375 645.492188 97.882812 C 645.269531 97.90625 645.042969 97.929688 644.820312 97.953125 C 643.238281 98.121094 643.238281 98.121094 642.710938 97.832031 C 642.371094 97.550781 642.339844 97.464844 642.261719 97.03125 C 642.277344 96.28125 642.855469 95.695312 643.296875 95.125 C 643.351562 95.054688 643.410156 94.980469 643.46875 94.90625 C 643.714844 94.585938 643.964844 94.265625 644.214844 93.945312 C 644.683594 93.34375 645.152344 92.742188 645.605469 92.128906 C 645.667969 92.050781 645.730469 91.96875 645.792969 91.886719 C 646.109375 91.472656 646.109375 91.472656 646.214844 90.984375 C 646.15625 90.847656 646.15625 90.847656 646.097656 90.707031 C 646.070312 90.640625 646.042969 90.574219 646.015625 90.503906 C 645.949219 90.339844 645.878906 90.179688 645.808594 90.015625 C 644.71875 87.464844 644.21875 84.539062 644.375 81.765625 C 644.378906 81.679688 644.382812 81.597656 644.386719 81.507812 C 644.703125 76.320312 646.820312 71.40625 649.976562 67.328125 C 650.050781 67.234375 650.121094 67.140625 650.195312 67.042969 C 650.40625 66.773438 650.621094 66.511719 650.839844 66.25 C 650.886719 66.191406 650.933594 66.136719 650.984375 66.078125 C 651.964844 64.898438 652.996094 63.785156 654.179688 62.800781 C 654.234375 62.757812 654.289062 62.710938 654.34375 62.664062 C 655.351562 61.820312 656.394531 61.101562 657.519531 60.433594 C 657.214844 60.230469 656.917969 60.066406 656.59375 59.902344 C 656.472656 59.839844 656.351562 59.78125 656.226562 59.714844 C 656.164062 59.683594 656.097656 59.652344 656.03125 59.617188 C 654.816406 58.996094 653.617188 58.347656 652.457031 57.628906 C 652.351562 57.566406 652.25 57.503906 652.140625 57.4375 C 650.757812 56.574219 649.425781 55.628906 648.144531 54.613281 C 648.046875 54.535156 647.945312 54.457031 647.84375 54.375 C 646.003906 52.898438 644.183594 51.214844 642.757812 49.335938 C 642.65625 49.203125 642.554688 49.074219 642.453125 48.941406 C 638.90625 44.335938 636.628906 38.605469 637.359375 32.703125 C 637.609375 30.984375 638.132812 29.398438 638.988281 27.894531 C 639.039062 27.796875 639.089844 27.699219 639.144531 27.601562 C 640.585938 25.03125 642.894531 23.023438 645.722656 22.167969 C 646.839844 21.894531 647.910156 21.816406 649.054688 21.820312 C 649.136719 21.820312 649.214844 21.820312 649.300781 21.820312 C 650.609375 21.824219 651.839844 21.921875 653.101562 22.289062 C 653.179688 22.3125 653.257812 22.335938 653.339844 22.355469 C 655.242188 22.90625 657.089844 23.738281 658.816406 24.703125 C 659.097656 24.855469 659.375 24.980469 659.675781 25.089844 C 659.742188 24.992188 659.808594 24.894531 659.875 24.796875 C 661.4375 22.535156 663.707031 20.773438 666.460938 20.242188 C 666.558594 20.222656 666.652344 20.199219 666.753906 20.175781 C 670.128906 19.496094 673.667969 20.6875 676.375 22.722656 Z M 676.375 22.722656 " fill-opacity="1" fill-rule="nonzero"/><path fill="#f9c82c" d="M 704.113281 35.1875 C 704.253906 35.1875 704.253906 35.1875 704.398438 35.1875 C 705.921875 35.191406 707.414062 35.257812 708.914062 35.542969 C 709.027344 35.5625 709.136719 35.585938 709.253906 35.609375 C 713.078125 36.363281 716.449219 37.941406 719.472656 40.390625 C 719.53125 40.4375 719.585938 40.484375 719.644531 40.527344 C 721.707031 42.195312 723.40625 44.136719 724.753906 46.425781 C 724.792969 46.492188 724.832031 46.558594 724.871094 46.625 C 726 48.5625 726.75 50.707031 727.230469 52.890625 C 727.261719 53.023438 727.261719 53.023438 727.292969 53.15625 C 727.972656 56.097656 727.964844 59.554688 727.230469 62.480469 C 727.207031 62.574219 727.183594 62.667969 727.160156 62.765625 C 725.878906 67.667969 722.859375 71.902344 718.476562 74.5 C 711.773438 78.363281 703.78125 78.875 696.402344 76.90625 C 693.261719 76.035156 690.222656 74.585938 687.796875 72.390625 C 687.644531 72.261719 687.492188 72.132812 687.335938 72 C 687.203125 71.878906 687.066406 71.757812 686.933594 71.636719 C 686.824219 71.539062 686.824219 71.539062 686.714844 71.441406 C 683.246094 68.152344 681.335938 63.058594 681.1875 58.339844 C 681.183594 58.070312 681.183594 57.800781 681.183594 57.53125 C 681.183594 57.457031 681.183594 57.386719 681.183594 57.3125 C 681.1875 55.914062 681.34375 54.578125 681.652344 53.214844 C 681.679688 53.097656 681.707031 52.984375 681.734375 52.867188 C 682.933594 47.789062 685.640625 43.21875 689.875 40.097656 C 690.054688 39.964844 690.230469 39.828125 690.40625 39.695312 C 693.019531 37.710938 696.132812 36.453125 699.296875 35.675781 C 699.425781 35.644531 699.425781 35.644531 699.558594 35.613281 C 701.074219 35.257812 702.5625 35.179688 704.113281 35.1875 Z M 704.113281 35.1875 " fill-opacity="1" fill-rule="nonzero"/><path fill="#fcfcfc" d="M 648.953125 24.089844 C 649.0625 24.089844 649.0625 24.089844 649.171875 24.089844 C 650.265625 24.09375 651.289062 24.144531 652.347656 24.445312 C 652.429688 24.46875 652.511719 24.492188 652.59375 24.511719 C 656.898438 25.738281 660.402344 28.242188 663.335938 31.554688 C 663.386719 31.613281 663.4375 31.667969 663.488281 31.726562 C 669.882812 38.921875 673.441406 49.953125 674.542969 60.863281 C 674.546875 60.953125 674.554688 61.042969 674.558594 61.132812 C 674.574219 61.382812 674.582031 61.636719 674.589844 61.886719 C 674.59375 62.027344 674.597656 62.167969 674.601562 62.3125 C 674.523438 62.820312 674.363281 62.984375 674.003906 63.339844 C 672.769531 63.945312 671.265625 63.269531 670.054688 62.855469 C 669.761719 62.753906 669.472656 62.648438 669.183594 62.546875 C 669.105469 62.519531 669.027344 62.492188 668.949219 62.464844 C 665.097656 61.09375 661.316406 59.492188 657.628906 57.738281 C 657.511719 57.683594 657.394531 57.628906 657.273438 57.570312 C 653.957031 55.992188 650.773438 53.988281 648.0625 51.492188 C 647.847656 51.296875 647.625 51.105469 647.40625 50.917969 C 646.511719 50.136719 645.683594 49.289062 644.949219 48.359375 C 644.769531 48.132812 644.585938 47.910156 644.398438 47.6875 C 641.738281 44.511719 639.636719 40.203125 639.613281 35.988281 C 639.609375 35.910156 639.609375 35.832031 639.609375 35.75 C 639.609375 35.585938 639.609375 35.417969 639.609375 35.253906 C 639.605469 35.007812 639.601562 34.761719 639.601562 34.515625 C 639.578125 31.429688 640.671875 28.683594 642.84375 26.464844 C 643.917969 25.410156 645.105469 24.78125 646.527344 24.335938 C 646.65625 24.296875 646.785156 24.257812 646.914062 24.214844 C 647.582031 24.054688 648.273438 24.085938 648.953125 24.089844 Z M 648.953125 24.089844 " fill-opacity="1" fill-rule="nonzero"/><path fill="#f9c82c" d="M 657.734375 63.125 C 657.726562 63.21875 657.71875 63.308594 657.710938 63.40625 C 656.992188 73.414062 660.246094 82.839844 666.675781 90.492188 C 666.8125 90.65625 666.8125 90.65625 666.949219 90.824219 C 667.617188 91.632812 668.335938 92.382812 669.074219 93.125 C 669.164062 93.214844 669.253906 93.308594 669.347656 93.402344 C 669.878906 93.925781 670.417969 94.429688 670.988281 94.910156 C 671.050781 94.964844 671.117188 95.019531 671.183594 95.078125 C 674.269531 97.660156 677.683594 99.753906 681.230469 101.632812 C 681.316406 101.675781 681.398438 101.722656 681.488281 101.765625 C 681.964844 102.019531 682.445312 102.246094 682.945312 102.453125 C 682.945312 102.523438 682.945312 102.59375 682.945312 102.667969 C 679.902344 103.316406 679.902344 103.316406 678.679688 103.511719 C 678.566406 103.527344 678.566406 103.527344 678.449219 103.546875 C 676.980469 103.765625 675.5 103.800781 674.015625 103.824219 C 673.746094 103.832031 673.472656 103.839844 673.199219 103.847656 C 670.488281 103.953125 670.488281 103.953125 669.359375 102.960938 C 669.242188 102.851562 669.125 102.738281 669.007812 102.621094 C 668.707031 102.335938 668.375 102.089844 668.042969 101.839844 C 667.109375 101.105469 666.191406 100.355469 665.3125 99.554688 C 665.089844 99.351562 664.859375 99.15625 664.628906 98.957031 C 664.101562 98.496094 663.613281 97.996094 663.121094 97.496094 C 662.820312 97.195312 662.515625 96.890625 662.210938 96.59375 C 661.421875 95.816406 660.683594 95.027344 659.996094 94.15625 C 659.890625 94.03125 659.785156 93.902344 659.679688 93.777344 C 658.207031 92.007812 656.933594 90.121094 655.796875 88.121094 C 655.738281 88.023438 655.683594 87.925781 655.625 87.824219 C 654.296875 85.480469 653.15625 83.042969 652.347656 80.472656 C 652.316406 80.375 652.285156 80.273438 652.253906 80.171875 C 651.449219 77.628906 650.941406 75.050781 650.730469 72.390625 C 650.722656 72.277344 650.710938 72.167969 650.703125 72.050781 C 650.609375 70.796875 650.558594 69.835938 651.398438 68.835938 C 651.449219 68.785156 651.496094 68.734375 651.546875 68.679688 C 651.710938 68.503906 651.859375 68.324219 652.007812 68.136719 C 653.4375 66.398438 655.03125 64.875 656.882812 63.59375 C 657.03125 63.488281 657.175781 63.382812 657.316406 63.269531 C 657.519531 63.125 657.519531 63.125 657.734375 63.125 Z M 657.734375 63.125 " fill-opacity="1" fill-rule="nonzero"/><path fill="#fcfcfc" d="M 675.054688 24.574219 C 676.679688 25.941406 677.890625 27.578125 678.960938 29.402344 C 679.019531 29.5 679.078125 29.601562 679.136719 29.703125 C 680.910156 32.992188 681.464844 36.734375 681.464844 40.417969 C 681.464844 40.507812 681.464844 40.597656 681.464844 40.691406 C 681.464844 42.226562 681.375 43.722656 681.117188 45.238281 C 681.097656 45.34375 681.082031 45.445312 681.066406 45.550781 C 680.382812 49.617188 679.003906 53.613281 677.667969 57.503906 C 677.628906 57.613281 677.59375 57.722656 677.554688 57.835938 C 677.332031 58.464844 677.085938 59.074219 676.804688 59.679688 C 676.734375 59.679688 676.664062 59.679688 676.589844 59.679688 C 676.578125 59.519531 676.578125 59.519531 676.566406 59.355469 C 675.789062 50.328125 672.332031 40.476562 664.320312 29.328125 C 664.117188 29.109375 663.925781 28.882812 663.734375 28.652344 C 663.40625 28.277344 663.050781 27.9375 662.683594 27.597656 C 662.605469 27.523438 662.605469 27.523438 662.523438 27.445312 C 662.167969 27.125 661.800781 26.855469 661.398438 26.601562 C 661.753906 25.886719 662.253906 25.347656 662.796875 24.769531 C 662.855469 24.703125 662.914062 24.632812 662.976562 24.566406 C 666.140625 21.105469 671.722656 21.871094 675.054688 24.574219 Z M 675.054688 24.574219 " fill-opacity="1" fill-rule="nonzero"/><path fill="#f9c82c" d="M 665.167969 63.558594 C 665.664062 63.632812 666.117188 63.808594 666.585938 63.984375 C 666.757812 64.050781 666.933594 64.117188 667.109375 64.183594 C 667.382812 64.285156 667.65625 64.390625 667.929688 64.492188 C 669.21875 64.984375 670.507812 65.386719 671.847656 65.710938 C 671.875 65.835938 671.875 65.835938 671.90625 65.960938 C 671.988281 66.34375 672.082031 66.730469 672.171875 67.113281 C 672.195312 67.203125 672.214844 67.292969 672.238281 67.386719 C 673.328125 71.917969 675.480469 76.011719 678.421875 79.609375 C 678.492188 79.699219 678.492188 79.699219 678.5625 79.785156 C 679.277344 80.667969 680.054688 81.480469 680.851562 82.285156 C 680.945312 82.378906 681.039062 82.472656 681.132812 82.570312 C 681.777344 83.207031 682.453125 83.789062 683.164062 84.351562 C 683.316406 84.476562 683.46875 84.597656 683.621094 84.722656 C 687.699219 87.988281 692.675781 90.28125 697.816406 91.246094 C 698.003906 91.285156 698.003906 91.285156 698.195312 91.320312 C 698.464844 91.371094 698.734375 91.417969 699 91.460938 C 698.566406 92.191406 698.035156 92.804688 697.457031 93.417969 C 697.222656 93.667969 696.996094 93.921875 696.773438 94.183594 C 696.453125 94.550781 696.109375 94.894531 695.761719 95.234375 C 695.570312 95.433594 695.394531 95.640625 695.214844 95.851562 C 694.855469 96.269531 694.457031 96.644531 694.042969 97.011719 C 693.980469 97.070312 693.917969 97.128906 693.855469 97.1875 C 693.792969 97.242188 693.730469 97.296875 693.667969 97.351562 C 693.613281 97.402344 693.558594 97.449219 693.503906 97.5 C 693.070312 97.710938 692.636719 97.628906 692.183594 97.511719 C 692.066406 97.46875 691.945312 97.425781 691.824219 97.382812 C 691.757812 97.359375 691.691406 97.335938 691.621094 97.3125 C 691.410156 97.234375 691.195312 97.15625 690.980469 97.078125 C 690.832031 97.023438 690.679688 96.96875 690.53125 96.914062 C 686.269531 95.363281 682.222656 93.398438 678.636719 90.601562 C 678.550781 90.53125 678.460938 90.464844 678.371094 90.394531 C 678.097656 90.179688 677.828125 89.960938 677.558594 89.738281 C 677.402344 89.609375 677.402344 89.609375 677.242188 89.480469 C 676.394531 88.785156 675.609375 88.027344 674.832031 87.253906 C 674.734375 87.15625 674.632812 87.058594 674.53125 86.957031 C 673.878906 86.300781 673.289062 85.613281 672.710938 84.890625 C 672.601562 84.761719 672.496094 84.628906 672.386719 84.5 C 668.796875 80.15625 666.488281 74.902344 665.492188 69.375 C 665.472656 69.28125 665.457031 69.183594 665.4375 69.085938 C 665.105469 67.25 665.136719 65.417969 665.167969 63.558594 Z M 665.167969 63.558594 " fill-opacity="1" fill-rule="nonzero"/><path fill="#010101" d="M 699.097656 44.269531 C 701.03125 45.777344 702.195312 47.980469 702.53125 50.398438 C 702.8125 53.019531 702.230469 55.703125 700.597656 57.804688 C 699.457031 59.136719 697.949219 60.179688 696.167969 60.347656 C 694.242188 60.449219 692.582031 60.007812 691.121094 58.695312 C 689.414062 57.089844 688.445312 54.976562 688.320312 52.636719 C 688.238281 50 688.761719 47.570312 690.53125 45.542969 C 690.695312 45.367188 690.859375 45.195312 691.027344 45.023438 C 691.101562 44.949219 691.175781 44.871094 691.253906 44.792969 C 693.4375 42.683594 696.644531 42.566406 699.097656 44.269531 Z M 699.097656 44.269531 " fill-opacity="1" fill-rule="nonzero"/><path fill="#010101" d="M 719.796875 44.054688 C 721.886719 45.492188 723.042969 47.335938 723.625 49.796875 C 723.722656 50.378906 723.695312 50.972656 723.695312 51.5625 C 723.695312 51.695312 723.699219 51.828125 723.699219 51.964844 C 723.703125 54.425781 722.832031 56.527344 721.089844 58.277344 C 721.03125 58.335938 720.972656 58.398438 720.914062 58.460938 C 719.847656 59.476562 718.273438 60.003906 716.832031 60.042969 C 714.882812 59.996094 713.308594 59.054688 711.972656 57.679688 C 710.234375 55.671875 709.734375 52.96875 709.859375 50.386719 C 710.050781 48.085938 711.214844 45.980469 712.949219 44.488281 C 714.917969 42.917969 717.636719 42.695312 719.796875 44.054688 Z M 719.796875 44.054688 " fill-opacity="1" fill-rule="nonzero"/><path fill="#000000" d="M 698.960938 63.046875 C 699.117188 63.046875 699.277344 63.046875 699.4375 63.050781 C 699.523438 63.050781 699.613281 63.050781 699.703125 63.050781 C 699.992188 63.050781 700.285156 63.054688 700.574219 63.058594 C 700.78125 63.058594 700.984375 63.058594 701.191406 63.0625 C 701.738281 63.0625 702.289062 63.066406 702.835938 63.074219 C 703.398438 63.082031 703.964844 63.085938 704.527344 63.085938 C 705.515625 63.09375 706.503906 63.105469 707.492188 63.117188 C 708.25 63.125 709.007812 63.128906 709.765625 63.132812 C 710.25 63.136719 710.738281 63.144531 711.226562 63.148438 C 711.4375 63.152344 711.652344 63.152344 711.863281 63.15625 C 712.148438 63.15625 712.433594 63.160156 712.71875 63.167969 C 712.796875 63.167969 712.878906 63.167969 712.960938 63.167969 C 713.328125 63.179688 713.515625 63.207031 713.808594 63.441406 C 714.25 64.023438 714.160156 64.796875 714.085938 65.496094 C 713.792969 67.03125 713.074219 68.429688 712.039062 69.589844 C 711.972656 69.667969 711.902344 69.742188 711.832031 69.824219 C 710.386719 71.363281 708.339844 72.132812 706.261719 72.226562 C 704.152344 72.269531 702.207031 71.410156 700.671875 69.988281 C 700.582031 69.890625 700.492188 69.796875 700.402344 69.699219 C 700.292969 69.59375 700.292969 69.59375 700.183594 69.484375 C 698.78125 68.054688 698.097656 66.121094 698.082031 64.136719 C 698.175781 63.542969 698.34375 63.171875 698.960938 63.046875 Z M 698.960938 63.046875 " fill-opacity="1" fill-rule="nonzero"/><path fill="#f8ca2d" d="M 679.605469 63.449219 C 679.800781 63.742188 679.882812 63.933594 679.980469 64.261719 C 680.011719 64.359375 680.039062 64.457031 680.070312 64.554688 C 680.101562 64.660156 680.132812 64.761719 680.164062 64.871094 C 681.761719 69.992188 685.179688 73.644531 689.628906 76.484375 C 689.695312 76.53125 689.765625 76.574219 689.835938 76.621094 C 694 79.242188 699.222656 80.128906 704.066406 80.257812 C 703.910156 81.183594 703.636719 82.070312 703.351562 82.964844 C 703.304688 83.109375 703.261719 83.253906 703.214844 83.402344 C 703.101562 83.753906 702.992188 84.105469 702.878906 84.460938 C 697.546875 84.050781 692.40625 81.554688 688.226562 78.316406 C 688.167969 78.273438 688.105469 78.226562 688.046875 78.179688 C 687.199219 77.519531 686.417969 76.792969 685.640625 76.054688 C 685.558594 75.980469 685.476562 75.902344 685.394531 75.824219 C 684.8125 75.257812 684.3125 74.640625 683.808594 74.007812 C 683.726562 73.90625 683.640625 73.808594 683.554688 73.703125 C 682.6875 72.640625 682.0625 71.453125 681.4375 70.238281 C 681.394531 70.148438 681.347656 70.0625 681.300781 69.972656 C 679.070312 65.640625 679.070312 65.640625 679.316406 63.972656 C 679.390625 63.773438 679.390625 63.773438 679.605469 63.449219 Z M 679.605469 63.449219 " fill-opacity="1" fill-rule="nonzero"/><path fill="#030201" d="M 699.097656 44.269531 C 701.03125 45.777344 702.195312 47.980469 702.53125 50.398438 C 702.8125 53.019531 702.230469 55.703125 700.597656 57.804688 C 699.457031 59.136719 697.949219 60.179688 696.167969 60.347656 C 694.242188 60.449219 692.582031 60.007812 691.121094 58.695312 C 689.414062 57.089844 688.445312 54.976562 688.320312 52.636719 C 688.238281 50 688.761719 47.570312 690.53125 45.542969 C 690.695312 45.367188 690.859375 45.195312 691.027344 45.023438 C 691.101562 44.949219 691.175781 44.871094 691.253906 44.792969 C 693.4375 42.683594 696.644531 42.566406 699.097656 44.269531 Z M 691.367188 46.667969 C 689.917969 48.652344 689.425781 50.867188 689.777344 53.292969 C 690.132812 55.167969 691 56.796875 692.519531 57.976562 C 692.804688 58.167969 693.09375 58.335938 693.398438 58.492188 C 693.472656 58.53125 693.546875 58.570312 693.625 58.609375 C 694.605469 59.019531 696.039062 58.96875 697.035156 58.605469 C 698.859375 57.769531 700.027344 56.371094 700.726562 54.507812 C 701.398438 52.273438 701.300781 50.050781 700.292969 47.933594 C 699.4375 46.414062 698.265625 45.222656 696.5625 44.707031 C 694.609375 44.261719 692.621094 45.136719 691.367188 46.667969 Z M 691.367188 46.667969 " fill-opacity="1" fill-rule="nonzero"/><path fill="#030201" d="M 719.796875 44.054688 C 721.886719 45.492188 723.042969 47.335938 723.625 49.796875 C 723.722656 50.378906 723.695312 50.972656 723.695312 51.5625 C 723.695312 51.695312 723.699219 51.828125 723.699219 51.964844 C 723.703125 54.425781 722.832031 56.527344 721.089844 58.277344 C 721.03125 58.335938 720.972656 58.398438 720.914062 58.460938 C 719.847656 59.476562 718.273438 60.003906 716.832031 60.042969 C 714.882812 59.996094 713.308594 59.054688 711.972656 57.679688 C 710.234375 55.671875 709.734375 52.96875 709.859375 50.386719 C 710.050781 48.085938 711.214844 45.980469 712.949219 44.488281 C 714.917969 42.917969 717.636719 42.695312 719.796875 44.054688 Z M 713.007812 46.53125 C 711.53125 48.289062 711.097656 50.4375 711.285156 52.675781 C 711.5 54.390625 712.308594 55.894531 713.546875 57.09375 C 713.609375 57.15625 713.671875 57.21875 713.738281 57.28125 C 714.605469 58.089844 715.757812 58.554688 716.941406 58.519531 C 718.488281 58.367188 719.726562 57.683594 720.738281 56.507812 C 722.101562 54.792969 722.460938 52.664062 722.226562 50.53125 C 721.875 48.488281 720.914062 46.832031 719.257812 45.5625 C 717.097656 44.21875 714.71875 44.730469 713.007812 46.53125 Z M 713.007812 46.53125 " fill-opacity="1" fill-rule="nonzero"/><path fill="#fafafa" d="M 698.292969 45.566406 C 699.875 46.78125 700.828125 48.566406 701.125 50.53125 C 701.347656 52.816406 700.84375 54.996094 699.433594 56.832031 C 698.601562 57.816406 697.492188 58.605469 696.199219 58.816406 C 694.699219 58.925781 693.414062 58.753906 692.226562 57.738281 C 692.113281 57.632812 692.113281 57.632812 691.996094 57.523438 C 691.917969 57.449219 691.835938 57.371094 691.753906 57.296875 C 690.269531 55.789062 689.703125 53.765625 689.679688 51.699219 C 689.699219 49.582031 690.375 47.632812 691.890625 46.101562 C 693.820312 44.40625 696.136719 44.085938 698.292969 45.566406 Z M 692.183594 47.5625 C 691.0625 49.019531 690.65625 50.652344 690.8125 52.457031 C 691.019531 53.9375 691.605469 55.351562 692.773438 56.320312 C 693.746094 57.046875 694.761719 57.46875 695.984375 57.308594 C 696.933594 57.117188 697.652344 56.792969 698.355469 56.121094 C 698.421875 56.058594 698.488281 55.992188 698.558594 55.925781 C 699.726562 54.703125 700.128906 53.148438 700.117188 51.503906 C 700.066406 49.761719 699.476562 48.367188 698.289062 47.101562 C 697.414062 46.28125 696.296875 45.949219 695.117188 45.964844 C 693.964844 46.070312 692.945312 46.710938 692.183594 47.5625 Z M 692.183594 47.5625 " fill-opacity="1" fill-rule="nonzero"/><path fill="#fafafa" d="M 719.636719 45.878906 C 721.242188 47.253906 722.109375 49.070312 722.292969 51.171875 C 722.421875 53.136719 721.921875 55.105469 720.605469 56.605469 C 720.445312 56.769531 720.285156 56.933594 720.121094 57.09375 C 720.058594 57.15625 719.996094 57.21875 719.929688 57.28125 C 719.078125 58.089844 717.890625 58.476562 716.730469 58.527344 C 715.285156 58.484375 714.042969 57.695312 713.070312 56.675781 C 711.550781 54.910156 711.152344 52.777344 711.285156 50.519531 C 711.472656 48.695312 712.441406 46.90625 713.851562 45.730469 C 715.667969 44.417969 717.882812 44.523438 719.636719 45.878906 Z M 713.546875 47.609375 C 712.269531 49.289062 712.054688 51.117188 712.300781 53.167969 C 712.578125 54.441406 713.257812 55.648438 714.300781 56.445312 C 715.457031 57.125 716.535156 57.40625 717.871094 57.128906 C 719.085938 56.726562 720.027344 55.871094 720.601562 54.730469 C 721.027344 53.757812 721.238281 52.839844 721.230469 51.777344 C 721.230469 51.6875 721.230469 51.601562 721.230469 51.507812 C 721.195312 49.890625 720.636719 48.484375 719.511719 47.308594 C 718.5625 46.421875 717.578125 46.019531 716.277344 46.058594 C 715.148438 46.195312 714.292969 46.777344 713.546875 47.609375 Z M 713.546875 47.609375 " fill-opacity="1" fill-rule="nonzero"/><path fill="#fbfbfb" d="M 694.582031 48.042969 C 694.933594 48.226562 695.167969 48.484375 695.386719 48.816406 C 695.496094 49.375 695.5 49.933594 695.195312 50.429688 C 694.835938 50.851562 694.636719 51.042969 694.070312 51.097656 C 693.71875 51.09375 693.527344 51.039062 693.25 50.816406 C 692.773438 50.316406 692.703125 49.953125 692.71875 49.277344 C 692.78125 48.765625 693.042969 48.480469 693.425781 48.164062 C 693.820312 48 694.167969 47.953125 694.582031 48.042969 Z M 694.582031 48.042969 " fill-opacity="1" fill-rule="nonzero"/><path fill="#fbfbfb" d="M 716.023438 48.148438 C 716.363281 48.425781 716.648438 48.699219 716.777344 49.117188 C 716.828125 49.71875 716.804688 50.113281 716.457031 50.628906 C 716.109375 50.929688 715.886719 51.046875 715.433594 51.113281 C 714.984375 51.046875 714.753906 50.917969 714.410156 50.628906 C 714.09375 50.128906 714.128906 49.582031 714.191406 49.011719 C 714.386719 48.59375 714.550781 48.417969 714.925781 48.15625 C 715.355469 48.011719 715.59375 48.023438 716.023438 48.148438 Z M 716.023438 48.148438 " fill-opacity="1" fill-rule="nonzero"/><path fill="#f3d431" d="M 679.605469 63.449219 C 679.871094 63.84375 679.980469 64.230469 680.113281 64.679688 C 680.136719 64.761719 680.164062 64.847656 680.191406 64.929688 C 680.214844 65.011719 680.238281 65.089844 680.261719 65.171875 C 680.285156 65.246094 680.304688 65.316406 680.328125 65.390625 C 680.367188 65.640625 680.324219 65.796875 680.253906 66.035156 C 680.214844 66.285156 680.179688 66.539062 680.144531 66.789062 C 679.542969 66.1875 679.285156 64.722656 679.285156 63.878906 C 679.441406 63.628906 679.441406 63.628906 679.605469 63.449219 Z M 679.605469 63.449219 " fill-opacity="1" fill-rule="nonzero"/><path fill="#f0d933" d="M 682.730469 49.765625 C 682.804688 49.800781 682.875 49.835938 682.945312 49.875 C 682.945312 49.945312 682.945312 50.015625 682.945312 50.089844 C 682.875 50.089844 682.804688 50.089844 682.730469 50.089844 C 682.738281 50.164062 682.742188 50.238281 682.75 50.316406 C 682.726562 50.695312 682.613281 50.960938 682.460938 51.308594 C 682.414062 51.421875 682.363281 51.539062 682.3125 51.65625 C 682.273438 51.742188 682.234375 51.832031 682.191406 51.921875 C 682.003906 51.472656 682.1875 51.089844 682.339844 50.660156 C 682.367188 50.585938 682.390625 50.511719 682.417969 50.4375 C 682.605469 49.890625 682.605469 49.890625 682.730469 49.765625 Z M 682.730469 49.765625 " fill-opacity="1" fill-rule="nonzero"/><path fill="#fae035" d="M 680.144531 65.386719 C 680.21875 65.460938 680.289062 65.53125 680.359375 65.605469 C 680.328125 65.785156 680.328125 65.785156 680.253906 66.035156 C 680.214844 66.285156 680.179688 66.539062 680.144531 66.789062 C 679.875 66.519531 679.8125 66.296875 679.714844 65.925781 C 679.753906 65.671875 679.753906 65.671875 679.824219 65.496094 C 679.859375 65.601562 679.894531 65.710938 679.929688 65.820312 C 680 65.675781 680.074219 65.535156 680.144531 65.386719 Z M 680.144531 65.386719 " fill-opacity="1" fill-rule="nonzero"/><path fill="#f5dc31" d="M 727.230469 61.402344 C 727.265625 61.402344 727.300781 61.402344 727.339844 61.402344 C 727.292969 62.003906 727.238281 62.558594 727.015625 63.125 C 726.902344 62.789062 726.90625 62.609375 726.941406 62.265625 C 726.949219 62.171875 726.957031 62.078125 726.964844 61.980469 C 727.015625 61.726562 727.015625 61.726562 727.230469 61.402344 Z M 727.230469 61.402344 " fill-opacity="1" fill-rule="nonzero"/><path fill="#fce636" d="M 721.84375 57.414062 C 721.914062 57.488281 721.984375 57.558594 722.058594 57.628906 C 721.886719 57.792969 721.714844 57.953125 721.539062 58.117188 C 721.394531 58.25 721.394531 58.25 721.25 58.386719 C 720.980469 58.601562 720.980469 58.601562 720.65625 58.601562 C 721.050781 58.210938 721.441406 57.816406 721.84375 57.414062 Z M 721.84375 57.414062 " fill-opacity="1" fill-rule="nonzero"/><path fill="#eecd2f" d="M 713.976562 65.496094 C 714.050781 65.53125 714.121094 65.566406 714.191406 65.605469 C 714.191406 65.851562 714.191406 66.101562 714.191406 66.359375 C 714.050781 66.394531 713.910156 66.429688 713.761719 66.464844 C 713.832031 66.144531 713.90625 65.824219 713.976562 65.496094 Z M 713.976562 65.496094 " fill-opacity="1" fill-rule="nonzero"/><path fill="#f9de33" d="M 652.5625 80.796875 C 652.597656 80.867188 652.632812 80.9375 652.671875 81.011719 C 652.742188 81.011719 652.8125 81.011719 652.886719 81.011719 C 653.007812 81.617188 653.007812 81.617188 652.886719 81.980469 C 652.832031 81.84375 652.777344 81.707031 652.722656 81.570312 C 652.695312 81.496094 652.664062 81.417969 652.632812 81.339844 C 652.5625 81.121094 652.5625 81.121094 652.5625 80.796875 Z M 652.5625 80.796875 " fill-opacity="1" fill-rule="nonzero"/><path fill="#f8dc34" d="M 680.359375 66.035156 C 680.578125 66.144531 680.578125 66.144531 680.703125 66.398438 C 680.792969 66.679688 680.792969 66.679688 680.683594 67.003906 C 680.613281 66.863281 680.542969 66.71875 680.46875 66.574219 C 680.363281 66.625 680.363281 66.625 680.253906 66.679688 C 680.25 66.5 680.25 66.320312 680.253906 66.144531 C 680.289062 66.105469 680.324219 66.070312 680.359375 66.035156 Z M 680.359375 66.035156 " fill-opacity="1" fill-rule="nonzero"/><path fill="#f3c22b" d="M 679.929688 65.066406 C 680.105469 65.34375 680.152344 65.460938 680.105469 65.792969 C 680.082031 65.871094 680.0625 65.953125 680.039062 66.035156 C 679.890625 65.894531 679.746094 65.75 679.605469 65.605469 C 679.605469 65.53125 679.605469 65.460938 679.605469 65.386719 C 679.714844 65.386719 679.820312 65.386719 679.929688 65.386719 C 679.929688 65.28125 679.929688 65.175781 679.929688 65.066406 Z M 679.929688 65.066406 " fill-opacity="1" fill-rule="nonzero"/><g clip-path="url(#6a78229ae5)"><path fill="#ffffff" d="M 586.402344 73.949219 C 585.972656 73.949219 585.625 74.296875 585.625 74.726562 C 585.625 75.152344 585.972656 75.5 586.402344 75.5 C 586.828125 75.5 587.175781 75.152344 587.175781 74.726562 C 587.175781 74.296875 586.828125 73.949219 586.402344 73.949219 Z M 589.476562 74.050781 C 589.046875 74.050781 588.703125 74.398438 588.703125 74.824219 C 588.703125 75.253906 589.046875 75.601562 589.476562 75.601562 C 589.902344 75.601562 590.25 75.253906 590.25 74.824219 C 590.25 74.398438 589.902344 74.050781 589.476562 74.050781 Z M 605.898438 75.023438 C 605.472656 75.023438 605.125 75.367188 605.125 75.796875 C 605.125 76.222656 605.472656 76.570312 605.898438 76.570312 C 606.328125 76.570312 606.671875 76.222656 606.671875 75.796875 C 606.671875 75.367188 606.328125 75.023438 605.898438 75.023438 Z M 608.984375 75.125 C 608.554688 75.125 608.210938 75.472656 608.210938 75.898438 C 608.210938 76.328125 608.554688 76.671875 608.984375 76.671875 C 609.410156 76.671875 609.757812 76.328125 609.757812 75.898438 C 609.757812 75.472656 609.410156 75.125 608.984375 75.125 Z M 583.574219 75.179688 C 583.144531 75.179688 582.796875 75.527344 582.796875 75.953125 C 582.796875 76.382812 583.144531 76.726562 583.574219 76.726562 C 584 76.726562 584.347656 76.382812 584.347656 75.953125 C 584.347656 75.527344 584 75.179688 583.574219 75.179688 Z M 592.265625 75.34375 C 591.839844 75.34375 591.492188 75.691406 591.492188 76.117188 C 591.492188 76.546875 591.839844 76.890625 592.265625 76.890625 C 592.695312 76.890625 593.039062 76.546875 593.039062 76.117188 C 593.039062 75.691406 592.695312 75.34375 592.265625 75.34375 Z M 602.878906 75.664062 C 602.449219 75.664062 602.101562 76.007812 602.101562 76.4375 C 602.101562 76.863281 602.449219 77.210938 602.878906 77.210938 C 603.304688 77.210938 603.652344 76.863281 603.652344 76.4375 C 603.652344 76.007812 603.304688 75.664062 602.878906 75.664062 Z M 611.851562 76.242188 C 611.421875 76.242188 611.074219 76.589844 611.074219 77.015625 C 611.074219 77.445312 611.421875 77.792969 611.851562 77.792969 C 612.277344 77.792969 612.625 77.445312 612.625 77.015625 C 612.625 76.589844 612.277344 76.242188 611.851562 76.242188 Z M 600.152344 77.105469 C 599.726562 77.105469 599.378906 77.453125 599.378906 77.878906 C 599.378906 78.308594 599.726562 78.652344 600.152344 78.652344 C 600.582031 78.652344 600.925781 78.308594 600.925781 77.878906 C 600.925781 77.453125 600.582031 77.105469 600.152344 77.105469 Z M 581.210938 77.15625 C 580.78125 77.15625 580.433594 77.503906 580.433594 77.933594 C 580.433594 78.359375 580.78125 78.707031 581.210938 78.707031 C 581.636719 78.707031 581.984375 78.359375 581.984375 77.933594 C 581.984375 77.503906 581.636719 77.15625 581.210938 77.15625 Z M 594.460938 77.511719 C 594.03125 77.511719 593.6875 77.859375 593.6875 78.285156 C 593.6875 78.714844 594.03125 79.058594 594.460938 79.058594 C 594.886719 79.058594 595.234375 78.714844 595.234375 78.285156 C 595.234375 77.859375 594.886719 77.511719 594.460938 77.511719 Z M 614 78.421875 C 613.574219 78.421875 613.226562 78.769531 613.226562 79.195312 C 613.226562 79.625 613.574219 79.972656 614 79.972656 C 614.429688 79.972656 614.773438 79.625 614.773438 79.195312 C 614.773438 78.769531 614.429688 78.421875 614 78.421875 Z M 597.867188 79.191406 C 597.4375 79.191406 597.089844 79.535156 597.089844 79.964844 C 597.089844 80.390625 597.4375 80.738281 597.867188 80.738281 C 598.292969 80.738281 598.640625 80.390625 598.640625 79.964844 C 598.640625 79.535156 598.292969 79.191406 597.867188 79.191406 Z M 579.613281 79.789062 C 579.183594 79.789062 578.835938 80.132812 578.835938 80.5625 C 578.835938 80.988281 579.183594 81.335938 579.613281 81.335938 C 580.039062 81.335938 580.386719 80.988281 580.386719 80.5625 C 580.386719 80.132812 580.039062 79.789062 579.613281 79.789062 Z M 596.117188 80.125 C 595.6875 80.125 595.339844 80.472656 595.339844 80.898438 C 595.339844 81.328125 595.6875 81.671875 596.117188 81.671875 C 596.542969 81.671875 596.890625 81.328125 596.890625 80.898438 C 596.890625 80.472656 596.542969 80.125 596.117188 80.125 Z M 615.226562 81.265625 C 614.796875 81.265625 614.449219 81.613281 614.449219 82.039062 C 614.449219 82.46875 614.796875 82.816406 615.226562 82.816406 C 615.652344 82.816406 616 82.46875 616 82.039062 C 616 81.613281 615.652344 81.265625 615.226562 81.265625 Z M 578.867188 82.789062 C 578.4375 82.789062 578.09375 83.136719 578.09375 83.5625 C 578.09375 83.992188 578.4375 84.335938 578.867188 84.335938 C 579.292969 84.335938 579.640625 83.992188 579.640625 83.5625 C 579.640625 83.136719 579.292969 82.789062 578.867188 82.789062 Z M 616.007812 84.253906 C 615.578125 84.253906 615.230469 84.601562 615.230469 85.03125 C 615.230469 85.457031 615.578125 85.804688 616.007812 85.804688 C 616.433594 85.804688 616.78125 85.457031 616.78125 85.03125 C 616.78125 84.601562 616.433594 84.253906 616.007812 84.253906 Z M 578.804688 85.878906 C 578.375 85.878906 578.03125 86.226562 578.03125 86.652344 C 578.03125 87.082031 578.375 87.429688 578.804688 87.429688 C 579.230469 87.429688 579.578125 87.082031 579.578125 86.652344 C 579.578125 86.226562 579.230469 85.878906 578.804688 85.878906 Z M 616.285156 87.335938 C 615.859375 87.335938 615.511719 87.683594 615.511719 88.109375 C 615.511719 88.539062 615.859375 88.886719 616.285156 88.886719 C 616.714844 88.886719 617.0625 88.539062 617.0625 88.109375 C 617.0625 87.683594 616.714844 87.335938 616.285156 87.335938 Z M 579.210938 88.949219 C 578.785156 88.949219 578.4375 89.292969 578.4375 89.722656 C 578.4375 90.148438 578.785156 90.496094 579.210938 90.496094 C 579.640625 90.496094 579.984375 90.148438 579.984375 89.722656 C 579.984375 89.292969 579.640625 88.949219 579.210938 88.949219 Z M 616.050781 90.417969 C 615.625 90.417969 615.277344 90.765625 615.277344 91.191406 C 615.277344 91.621094 615.625 91.964844 616.050781 91.964844 C 616.480469 91.964844 616.824219 91.621094 616.824219 91.191406 C 616.824219 90.765625 616.480469 90.417969 616.050781 90.417969 Z M 579.984375 91.945312 C 579.554688 91.945312 579.210938 92.292969 579.210938 92.71875 C 579.210938 93.148438 579.554688 93.492188 579.984375 93.492188 C 580.410156 93.492188 580.757812 93.148438 580.757812 92.71875 C 580.757812 92.292969 580.410156 91.945312 579.984375 91.945312 Z M 615.339844 93.429688 C 614.910156 93.429688 614.5625 93.777344 614.5625 94.203125 C 614.5625 94.632812 614.910156 94.976562 615.339844 94.976562 C 615.765625 94.976562 616.113281 94.632812 616.113281 94.203125 C 616.113281 93.777344 615.765625 93.429688 615.339844 93.429688 Z M 581.355469 94.71875 C 580.925781 94.71875 580.578125 95.066406 580.578125 95.496094 C 580.578125 95.921875 580.925781 96.269531 581.355469 96.269531 C 581.78125 96.269531 582.128906 95.921875 582.128906 95.496094 C 582.128906 95.066406 581.78125 94.722656 581.355469 94.71875 Z M 614.222656 96.316406 C 613.792969 96.316406 613.445312 96.660156 613.445312 97.089844 C 613.445312 97.515625 613.792969 97.863281 614.222656 97.863281 C 614.648438 97.863281 614.996094 97.515625 614.996094 97.089844 C 614.996094 96.660156 614.648438 96.316406 614.222656 96.316406 Z M 582.9375 97.382812 C 582.507812 97.382812 582.164062 97.730469 582.164062 98.160156 C 582.164062 98.585938 582.507812 98.933594 582.9375 98.933594 C 583.363281 98.933594 583.710938 98.585938 583.710938 98.160156 C 583.710938 97.730469 583.363281 97.382812 582.9375 97.382812 Z M 648.105469 97.714844 C 647.675781 97.714844 647.328125 98.058594 647.328125 98.488281 C 647.328125 98.914062 647.675781 99.261719 648.105469 99.261719 C 648.53125 99.261719 648.878906 98.914062 648.878906 98.488281 C 648.878906 98.058594 648.53125 97.714844 648.105469 97.714844 Z M 651.199219 97.78125 C 650.773438 97.78125 650.425781 98.128906 650.425781 98.554688 C 650.425781 98.984375 650.773438 99.332031 651.199219 99.332031 C 651.628906 99.332031 651.972656 98.984375 651.972656 98.554688 C 651.972656 98.128906 651.628906 97.78125 651.199219 97.78125 Z M 645.007812 97.820312 C 644.582031 97.820312 644.234375 98.167969 644.234375 98.59375 C 644.234375 99.023438 644.582031 99.371094 645.007812 99.371094 C 645.4375 99.371094 645.785156 99.023438 645.785156 98.59375 C 645.785156 98.167969 645.4375 97.820312 645.007812 97.820312 Z M 654.289062 97.996094 C 653.863281 97.996094 653.515625 98.34375 653.515625 98.769531 C 653.515625 99.199219 653.863281 99.542969 654.289062 99.542969 C 654.71875 99.542969 655.0625 99.199219 655.0625 98.769531 C 655.0625 98.34375 654.71875 97.996094 654.289062 97.996094 Z M 641.929688 98.140625 C 641.5 98.140625 641.15625 98.488281 641.15625 98.914062 C 641.15625 99.34375 641.5 99.6875 641.929688 99.6875 C 642.355469 99.6875 642.703125 99.34375 642.703125 98.914062 C 642.703125 98.488281 642.355469 98.140625 641.929688 98.140625 Z M 638.882812 98.726562 C 638.457031 98.726562 638.109375 99.074219 638.109375 99.503906 C 638.109375 99.929688 638.457031 100.277344 638.882812 100.277344 C 639.3125 100.277344 639.65625 99.929688 639.660156 99.503906 C 639.660156 99.074219 639.3125 98.726562 638.882812 98.726562 Z M 612.777344 99.054688 C 612.351562 99.054688 612.003906 99.398438 612.003906 99.828125 C 612.003906 100.253906 612.351562 100.601562 612.777344 100.601562 C 613.207031 100.601562 613.550781 100.253906 613.550781 99.828125 C 613.550781 99.398438 613.207031 99.054688 612.777344 99.054688 Z M 635.933594 99.652344 C 635.503906 99.652344 635.15625 100 635.15625 100.425781 C 635.15625 100.855469 635.503906 101.199219 635.933594 101.199219 C 636.359375 101.199219 636.707031 100.855469 636.707031 100.425781 C 636.707031 100 636.359375 99.652344 635.933594 99.652344 Z M 584.730469 99.90625 C 584.300781 99.90625 583.953125 100.253906 583.953125 100.679688 C 583.953125 101.109375 584.300781 101.457031 584.730469 101.457031 C 585.15625 101.457031 585.503906 101.109375 585.503906 100.679688 C 585.503906 100.253906 585.15625 99.90625 584.730469 99.90625 Z M 633.078125 100.859375 C 632.652344 100.859375 632.304688 101.207031 632.304688 101.632812 C 632.304688 102.0625 632.652344 102.410156 633.078125 102.410156 C 633.507812 102.410156 633.851562 102.0625 633.851562 101.632812 C 633.851562 101.207031 633.507812 100.859375 633.078125 100.859375 Z M 611.082031 101.644531 C 610.652344 101.644531 610.304688 101.988281 610.304688 102.417969 C 610.304688 102.84375 610.652344 103.191406 611.082031 103.191406 C 611.507812 103.191406 611.855469 102.84375 611.855469 102.417969 C 611.855469 101.988281 611.507812 101.644531 611.082031 101.644531 Z M 586.726562 102.269531 C 586.296875 102.269531 585.949219 102.613281 585.949219 103.042969 C 585.949219 103.46875 586.296875 103.816406 586.726562 103.816406 C 587.152344 103.816406 587.5 103.46875 587.5 103.042969 C 587.5 102.613281 587.152344 102.269531 586.726562 102.269531 Z M 630.433594 102.453125 C 630.007812 102.453125 629.660156 102.800781 629.660156 103.226562 C 629.660156 103.65625 630.007812 104.003906 630.433594 104.003906 C 630.863281 104.003906 631.207031 103.65625 631.207031 103.226562 C 631.207031 102.800781 630.863281 102.453125 630.433594 102.453125 Z M 609.136719 104.058594 C 608.707031 104.058594 608.363281 104.40625 608.363281 104.832031 C 608.363281 105.261719 608.707031 105.605469 609.136719 105.605469 C 609.5625 105.605469 609.910156 105.261719 609.910156 104.832031 C 609.910156 104.40625 609.5625 104.058594 609.136719 104.058594 Z M 627.816406 104.109375 C 627.386719 104.109375 627.042969 104.457031 627.042969 104.882812 C 627.042969 105.3125 627.386719 105.65625 627.816406 105.65625 C 628.242188 105.65625 628.589844 105.3125 628.589844 104.882812 C 628.589844 104.457031 628.242188 104.109375 627.816406 104.109375 Z M 588.914062 104.453125 C 588.488281 104.453125 588.140625 104.796875 588.140625 105.226562 C 588.140625 105.652344 588.488281 106 588.914062 106 C 589.34375 106 589.6875 105.652344 589.6875 105.226562 C 589.6875 104.796875 589.34375 104.453125 588.914062 104.453125 Z M 625.1875 105.746094 C 624.757812 105.746094 624.410156 106.09375 624.410156 106.519531 C 624.410156 106.949219 624.757812 107.292969 625.1875 107.292969 C 625.613281 107.292969 625.960938 106.949219 625.960938 106.519531 C 625.960938 106.09375 625.613281 105.746094 625.1875 105.746094 Z M 559.980469 105.898438 C 559.554688 105.898438 559.207031 106.246094 559.207031 106.675781 C 559.207031 107.101562 559.554688 107.449219 559.980469 107.449219 C 560.410156 107.449219 560.753906 107.101562 560.753906 106.675781 C 560.753906 106.246094 560.410156 105.898438 559.980469 105.898438 Z M 563.074219 105.988281 C 562.648438 105.988281 562.300781 106.335938 562.300781 106.761719 C 562.300781 107.191406 562.648438 107.535156 563.074219 107.535156 C 563.503906 107.535156 563.847656 107.191406 563.847656 106.761719 C 563.847656 106.335938 563.503906 105.988281 563.074219 105.988281 Z M 606.816406 106.109375 C 606.386719 106.109375 606.042969 106.457031 606.042969 106.882812 C 606.042969 107.3125 606.386719 107.660156 606.816406 107.660156 C 607.242188 107.660156 607.589844 107.3125 607.589844 106.882812 C 607.589844 106.457031 607.242188 106.109375 606.816406 106.109375 Z M 556.902344 106.25 C 556.472656 106.25 556.125 106.597656 556.125 107.027344 C 556.125 107.453125 556.472656 107.800781 556.902344 107.800781 C 557.328125 107.800781 557.675781 107.453125 557.675781 107.027344 C 557.675781 106.597656 557.328125 106.25 556.902344 106.25 Z M 566.144531 106.355469 C 565.714844 106.355469 565.371094 106.699219 565.371094 107.128906 C 565.371094 107.554688 565.714844 107.902344 566.144531 107.902344 C 566.570312 107.902344 566.917969 107.554688 566.917969 107.128906 C 566.917969 106.699219 566.570312 106.355469 566.144531 106.355469 Z M 591.28125 106.445312 C 590.851562 106.445312 590.507812 106.792969 590.507812 107.21875 C 590.507812 107.648438 590.851562 107.996094 591.28125 107.996094 C 591.707031 107.996094 592.054688 107.648438 592.054688 107.21875 C 592.054688 106.792969 591.707031 106.445312 591.28125 106.445312 Z M 553.929688 107.121094 C 553.5 107.121094 553.15625 107.46875 553.15625 107.894531 C 553.15625 108.324219 553.5 108.671875 553.929688 108.671875 C 554.355469 108.671875 554.703125 108.324219 554.703125 107.894531 C 554.703125 107.46875 554.355469 107.121094 553.929688 107.121094 Z M 569.117188 107.21875 C 568.6875 107.21875 568.34375 107.566406 568.34375 107.992188 C 568.34375 108.421875 568.6875 108.765625 569.117188 108.765625 C 569.542969 108.765625 569.890625 108.421875 569.890625 107.992188 C 569.890625 107.566406 569.542969 107.21875 569.117188 107.21875 Z M 622.542969 107.359375 C 622.113281 107.359375 621.769531 107.703125 621.765625 108.132812 C 621.765625 108.558594 622.113281 108.90625 622.542969 108.90625 C 622.96875 108.90625 623.316406 108.558594 623.316406 108.132812 C 623.316406 107.703125 622.96875 107.359375 622.542969 107.359375 Z M 604.332031 107.957031 C 603.902344 107.957031 603.558594 108.304688 603.558594 108.730469 C 603.558594 109.160156 603.902344 109.507812 604.332031 109.507812 C 604.757812 109.507812 605.105469 109.160156 605.105469 108.730469 C 605.105469 108.304688 604.757812 107.957031 604.332031 107.957031 Z M 572.042969 108.234375 C 571.613281 108.234375 571.269531 108.582031 571.269531 109.007812 C 571.269531 109.4375 571.613281 109.785156 572.042969 109.785156 C 572.46875 109.785156 572.816406 109.4375 572.816406 109.007812 C 572.816406 108.582031 572.46875 108.234375 572.042969 108.234375 Z M 593.804688 108.242188 C 593.378906 108.242188 593.03125 108.589844 593.03125 109.019531 C 593.03125 109.445312 593.378906 109.792969 593.804688 109.792969 C 594.234375 109.792969 594.582031 109.445312 594.582031 109.019531 C 594.582031 108.589844 594.234375 108.242188 593.804688 108.242188 Z M 551.121094 108.40625 C 550.695312 108.40625 550.347656 108.753906 550.347656 109.183594 C 550.347656 109.609375 550.695312 109.957031 551.121094 109.957031 C 551.550781 109.957031 551.898438 109.609375 551.898438 109.183594 C 551.898438 108.753906 551.550781 108.40625 551.121094 108.40625 Z M 619.875 108.933594 C 619.445312 108.933594 619.101562 109.277344 619.101562 109.707031 C 619.101562 110.132812 619.445312 110.480469 619.875 110.480469 C 620.300781 110.480469 620.648438 110.132812 620.648438 109.707031 C 620.648438 109.277344 620.300781 108.933594 619.875 108.933594 Z M 574.949219 109.308594 C 574.519531 109.308594 574.171875 109.65625 574.171875 110.082031 C 574.171875 110.511719 574.519531 110.855469 574.949219 110.855469 C 575.375 110.855469 575.722656 110.511719 575.722656 110.082031 C 575.722656 109.65625 575.375 109.308594 574.949219 109.308594 Z M 601.683594 109.5625 C 601.257812 109.5625 600.910156 109.90625 600.910156 110.335938 C 600.910156 110.761719 601.257812 111.109375 601.6875 111.109375 C 602.113281 111.109375 602.460938 110.761719 602.460938 110.335938 C 602.460938 109.90625 602.113281 109.5625 601.683594 109.5625 Z M 596.457031 109.835938 C 596.027344 109.835938 595.679688 110.183594 595.679688 110.609375 C 595.679688 111.039062 596.027344 111.386719 596.457031 111.386719 C 596.882812 111.386719 597.230469 111.039062 597.230469 110.609375 C 597.230469 110.183594 596.882812 109.835938 596.457031 109.835938 Z M 548.519531 110.070312 C 548.09375 110.070312 547.746094 110.414062 547.746094 110.84375 C 547.746094 111.269531 548.09375 111.617188 548.519531 111.617188 C 548.949219 111.617188 549.292969 111.269531 549.292969 110.84375 C 549.292969 110.414062 548.949219 110.070312 548.519531 110.070312 Z M 577.839844 110.414062 C 577.414062 110.414062 577.066406 110.761719 577.066406 111.1875 C 577.066406 111.617188 577.414062 111.960938 577.839844 111.960938 C 578.269531 111.960938 578.617188 111.617188 578.617188 111.1875 C 578.617188 110.761719 578.269531 110.414062 577.839844 110.414062 Z M 617.164062 110.433594 C 616.738281 110.433594 616.390625 110.777344 616.390625 111.207031 C 616.390625 111.632812 616.738281 111.980469 617.164062 111.980469 C 617.59375 111.980469 617.941406 111.632812 617.941406 111.207031 C 617.941406 110.777344 617.59375 110.433594 617.164062 110.433594 Z M 598.890625 110.882812 C 598.460938 110.882812 598.113281 111.226562 598.113281 111.65625 C 598.113281 111.953125 598.28125 112.210938 598.527344 112.339844 L 598.511719 112.339844 C 598.636719 112.601562 598.902344 112.78125 599.210938 112.78125 C 599.636719 112.78125 599.984375 112.433594 599.984375 112.007812 C 599.984375 111.726562 599.835938 111.480469 599.613281 111.347656 L 599.597656 111.347656 C 599.480469 111.074219 599.207031 110.882812 598.890625 110.882812 Z M 580.726562 111.539062 C 580.300781 111.539062 579.953125 111.886719 579.953125 112.3125 C 579.953125 112.742188 580.300781 113.089844 580.726562 113.089844 C 581.15625 113.089844 581.5 112.742188 581.5 112.3125 C 581.5 111.886719 581.15625 111.539062 580.726562 111.539062 Z M 614.324219 111.640625 C 613.898438 111.640625 613.550781 111.988281 613.550781 112.417969 C 613.550781 112.84375 613.898438 113.191406 614.324219 113.191406 C 614.753906 113.191406 615.097656 112.84375 615.097656 112.417969 C 615.097656 111.988281 614.753906 111.640625 614.324219 111.640625 Z M 595.964844 111.886719 C 595.539062 111.886719 595.191406 112.230469 595.191406 112.660156 C 595.191406 113.085938 595.539062 113.433594 595.964844 113.433594 C 596.394531 113.433594 596.738281 113.085938 596.738281 112.660156 C 596.738281 112.230469 596.394531 111.886719 595.964844 111.886719 Z M 546.175781 112.078125 C 545.746094 112.078125 545.402344 112.421875 545.402344 112.851562 C 545.402344 113.277344 545.746094 113.625 546.175781 113.625 C 546.601562 113.625 546.949219 113.277344 546.949219 112.851562 C 546.949219 112.421875 546.601562 112.078125 546.175781 112.078125 Z M 602.132812 112.277344 C 601.707031 112.277344 601.359375 112.625 601.359375 113.050781 C 601.359375 113.480469 601.707031 113.828125 602.132812 113.828125 C 602.5625 113.828125 602.910156 113.480469 602.910156 113.050781 C 602.910156 112.625 602.5625 112.277344 602.132812 112.277344 Z M 583.703125 112.375 C 583.273438 112.375 582.929688 112.722656 582.929688 113.148438 C 582.929688 113.578125 583.273438 113.921875 583.703125 113.921875 C 584.128906 113.921875 584.476562 113.578125 584.476562 113.148438 C 584.476562 112.722656 584.128906 112.375 583.703125 112.375 Z M 611.328125 112.417969 C 610.898438 112.417969 610.554688 112.765625 610.554688 113.191406 C 610.554688 113.621094 610.898438 113.964844 611.328125 113.964844 C 611.753906 113.964844 612.101562 113.621094 612.101562 113.191406 C 612.101562 112.765625 611.753906 112.417969 611.328125 112.417969 Z M 592.941406 112.550781 C 592.515625 112.550781 592.167969 112.894531 592.167969 113.324219 C 592.167969 113.75 592.515625 114.097656 592.941406 114.097656 C 593.371094 114.097656 593.71875 113.75 593.71875 113.324219 C 593.71875 112.894531 593.371094 112.550781 592.941406 112.550781 Z M 586.769531 112.792969 C 586.34375 112.792969 585.996094 113.140625 585.996094 113.566406 C 585.996094 113.996094 586.34375 114.34375 586.769531 114.34375 C 587.199219 114.34375 587.546875 113.996094 587.546875 113.566406 C 587.546875 113.140625 587.199219 112.792969 586.769531 112.792969 Z M 605.183594 112.800781 C 604.757812 112.800781 604.410156 113.148438 604.410156 113.578125 C 604.410156 114.003906 604.757812 114.351562 605.183594 114.351562 C 605.613281 114.351562 605.957031 114.003906 605.957031 113.578125 C 605.957031 113.148438 605.613281 112.800781 605.183594 112.800781 Z M 608.277344 112.847656 C 607.847656 112.847656 607.5 113.191406 607.5 113.621094 C 607.5 114.046875 607.847656 114.394531 608.277344 114.394531 C 608.703125 114.394531 609.050781 114.046875 609.050781 113.621094 C 609.050781 113.191406 608.703125 112.847656 608.277344 112.847656 Z M 589.863281 112.863281 C 589.4375 112.863281 589.089844 113.207031 589.089844 113.636719 C 589.089844 114.0625 589.4375 114.410156 589.863281 114.410156 C 590.292969 114.410156 590.636719 114.0625 590.636719 113.636719 C 590.636719 113.207031 590.292969 112.863281 589.863281 112.863281 Z M 544.117188 114.378906 C 543.691406 114.378906 543.34375 114.726562 543.34375 115.15625 C 543.34375 115.582031 543.691406 115.929688 544.117188 115.929688 C 544.546875 115.929688 544.894531 115.582031 544.894531 115.15625 C 544.894531 114.726562 544.546875 114.378906 544.117188 114.378906 Z M 542.34375 116.9375 C 541.917969 116.9375 541.570312 117.28125 541.570312 117.710938 C 541.570312 118.136719 541.917969 118.484375 542.34375 118.484375 C 542.773438 118.484375 543.121094 118.136719 543.121094 117.710938 C 543.121094 117.28125 542.773438 116.9375 542.34375 116.9375 Z M 540.863281 119.652344 C 540.4375 119.652344 540.089844 120 540.089844 120.429688 C 540.089844 120.855469 540.4375 121.203125 540.863281 121.203125 C 541.292969 121.203125 541.636719 120.855469 541.636719 120.429688 C 541.636719 120 541.292969 119.652344 540.863281 119.652344 Z M 539.636719 122.496094 C 539.210938 122.496094 538.863281 122.84375 538.863281 123.269531 C 538.863281 123.699219 539.210938 124.046875 539.636719 124.046875 C 540.066406 124.046875 540.414062 123.699219 540.414062 123.269531 C 540.414062 122.84375 540.066406 122.496094 539.636719 122.496094 Z M 539.636719 122.496094 " fill-opacity="1" fill-rule="nonzero"/></g></svg>