<?xml version="1.0" encoding="UTF-8" standalone="no"?>
<svg
   version="1.1"
   width="1024"
   height="1024"
   id="svg26"
   sodipodi:docname="bee1.svg"
   inkscape:version="1.4 (e7c3feb1, 2024-10-09)"
   xmlns:inkscape="http://www.inkscape.org/namespaces/inkscape"
   xmlns:sodipodi="http://sodipodi.sourceforge.net/DTD/sodipodi-0.dtd"
   xmlns="http://www.w3.org/2000/svg"
   xmlns:svg="http://www.w3.org/2000/svg">
  <defs
     id="defs26" />
  <sodipodi:namedview
     id="namedview26"
     pagecolor="#ffffff"
     bordercolor="#000000"
     borderopacity="0.25"
     inkscape:showpageshadow="2"
     inkscape:pageopacity="0.0"
     inkscape:pagecheckerboard="0"
     inkscape:deskcolor="#d1d1d1"
     inkscape:zoom="0.3609101"
     inkscape:cx="340.80509"
     inkscape:cy="592.94544"
     inkscape:window-width="1512"
     inkscape:window-height="755"
     inkscape:window-x="0"
     inkscape:window-y="38"
     inkscape:window-maximized="0"
     inkscape:current-layer="svg26" />
  <path
     d="M0 0 C4.21806748 3.44008808 8.10946532 7.19864663 12 11 C12.75539063 11.69351563 13.51078125 12.38703125 14.2890625 13.1015625 C43.82116276 40.91543148 58.39219199 80.93829262 65 120 C65.12600586 120.74024414 65.25201172 121.48048828 65.38183594 122.24316406 C67.92985077 137.59930091 68.13382895 152.7964343 68.0625 168.3125 C68.05747279 170.22851445 68.05291206 172.14453018 68.04882812 174.06054688 C68.03792424 178.70706353 68.02072757 183.35351721 68 188 C68.5158667 187.34700928 69.0317334 186.69401855 69.56323242 186.02124023 C75.09772899 179.05256372 80.88391643 172.45916027 87 166 C87.8765625 165.06929687 88.753125 164.13859375 89.65625 163.1796875 C113.67251236 138.38642841 146.31219782 118.79759401 178.5 106.8125 C179.24604492 106.53325684 179.99208984 106.25401367 180.76074219 105.96630859 C185.51268561 104.2846354 189.98064705 103.46915123 195 103 C190.30890791 83.79411708 184.22488232 66.11415122 171 51 C170.15115234 50.02546875 170.15115234 50.02546875 169.28515625 49.03125 C162.0486486 41.26690297 152.8528973 37.31956715 143.1015625 33.58984375 C139.08883877 31.5329438 136.99931933 28.99863866 135 25 C134.6255589 20.03865547 134.76101867 16.88677759 138 13 C142.50039028 9.96485307 146.69080138 9.08043292 152 10 C175.97108274 17.26584632 191.40484211 32.67315032 203.15234375 54.37109375 C210.17556641 67.86719832 214.91337055 82.78718765 216 98 C217.03898438 97.79503906 218.07796875 97.59007812 219.1484375 97.37890625 C220.55724639 97.10653653 221.96610319 96.83441455 223.375 96.5625 C224.39400391 96.36043945 224.39400391 96.36043945 225.43359375 96.15429688 C236.62524228 94.01010253 247.76315409 93.75867642 259.125 93.75 C259.92201324 93.74932526 260.71902649 93.74865051 261.54019165 93.74795532 C310.62731891 93.81365945 310.62731891 93.81365945 329 103 C328.97462158 102.39849121 328.94924316 101.79698242 328.9230957 101.17724609 C328.76942764 94.68053654 329.60380007 88.91210844 331.1875 82.625 C331.41526123 81.70380371 331.64302246 80.78260742 331.87768555 79.83349609 C333.64877048 72.9042255 335.80893616 66.41681317 339 60 C339.43119141 59.11538086 339.43119141 59.11538086 339.87109375 58.21289062 C344.05191269 49.70379647 348.57757266 42.04791592 355 35 C355.43296387 34.51934082 355.86592773 34.03868164 356.31201172 33.54345703 C367.32372121 21.45855622 380.8481742 11.2625388 397.75 10.375 C402.88464106 10.56471856 406.28307003 11.31238971 409.88671875 15.0859375 C411.97434433 18.6751885 411.78154133 22.01856305 411 26 C409.6270497 29.86142273 407.91650887 31.19551668 404.359375 32.9140625 C403.64458984 33.26154541 402.92980469 33.60902832 402.19335938 33.96704102 C400.18325154 34.91369799 398.16497985 35.83821337 396.140625 36.75390625 C386.52416361 41.16429857 379.25024469 46.30475526 372 54 C371.26265625 54.77988281 370.5253125 55.55976563 369.765625 56.36328125 C357.13673092 70.9256688 351.51531486 90.45171264 348 109 C348.8971875 109.3403125 349.794375 109.680625 350.71875 110.03125 C372.19196221 118.31123675 392.18152321 129.37390596 410 144 C410.52899902 144.43280273 411.05799805 144.86560547 411.60302734 145.31152344 C461.59846798 186.38188541 491.14619047 239.47327299 497.53125 304.55078125 C502.10961105 360.71374432 486.50952927 415.25908432 450.1484375 458.51171875 C449.43945312 459.33285156 448.73046875 460.15398437 448 461 C447.24976563 461.87269531 446.49953125 462.74539063 445.7265625 463.64453125 C441.12903088 468.87755786 436.38526363 473.58988198 431 478 C430.49259277 478.42506836 429.98518555 478.85013672 429.46240234 479.28808594 C419.81430591 487.36002191 409.77614585 494.50887746 399 501 C398.40316406 501.3604541 397.80632813 501.7209082 397.19140625 502.09228516 C361.74334742 523.10189145 320.3771648 530.77770003 280 535 C279.80615723 535.96599121 279.61231445 536.93198242 279.41259766 537.92724609 C274.66750767 560.89859416 266.48820123 584.04104154 256 605 C255.58282715 605.84916992 255.1656543 606.69833984 254.73583984 607.57324219 C236.1505857 645.21199697 207.64669544 681.63410372 174 707 C172.83903229 707.91172808 171.67893968 708.82457113 170.51953125 709.73828125 C124.67799162 745.45285851 69.20382247 765.65102034 12 773 C11.10474609 773.12004395 10.20949219 773.24008789 9.28710938 773.36376953 C-35.97008064 779.24439976 -87.46586409 776.13751391 -131 762 C-131.91088379 761.70818848 -132.82176758 761.41637695 -133.76025391 761.11572266 C-171.93738217 748.66543439 -215.00636942 727.37245906 -240.86328125 695.328125 C-246.57123815 691.7802176 -256.86544504 694.38840395 -263.31640625 695.09375 C-264.37230453 695.20473022 -265.42820282 695.31571045 -266.51609802 695.43005371 C-269.86538376 695.78228918 -273.2139906 696.14046415 -276.5625 696.5 C-279.91459685 696.85935134 -283.26681141 697.21723343 -286.61961365 697.56994629 C-288.69804323 697.78859782 -290.77608602 698.01096916 -292.85365295 698.2376709 C-307.56055577 699.7851514 -307.56055577 699.7851514 -312.4375 697.125 C-315.59887056 694.50337564 -315.86496189 693.71570196 -316.625 689.6875 C-316.47515138 682.70705199 -311.09313483 677.27813092 -307 672 C-306.4750293 671.32114746 -305.95005859 670.64229492 -305.40917969 669.94287109 C-303.10277912 666.96833046 -300.78776409 664.00058136 -298.4699707 661.03491211 C-294.11587516 655.45735171 -289.79010921 649.86173333 -285.5625 644.1875 C-284.98854492 643.44089111 -284.41458984 642.69428223 -283.82324219 641.92504883 C-280.88874096 638.10489472 -280.88874096 638.10489472 -279.91796875 633.546875 C-280.45357422 632.28617188 -280.45357422 632.28617188 -281 631 C-281.25531494 630.37262939 -281.51062988 629.74525879 -281.77368164 629.09887695 C-282.39553949 627.58353159 -283.03162143 626.07397473 -283.67895508 624.56933594 C-293.79762613 600.88606392 -298.43318692 573.74535379 -297 548 C-296.95746094 547.21125488 -296.91492188 546.42250977 -296.87109375 545.60986328 C-293.95223818 497.47681225 -274.29060729 451.85063783 -245 414 C-244.32710938 413.12601563 -243.65421875 412.25203125 -242.9609375 411.3515625 C-241.00909028 408.86958394 -239.01779448 406.42869081 -237 404 C-236.56075195 403.47051758 -236.12150391 402.94103516 -235.66894531 402.39550781 C-226.55227921 391.45180504 -216.99007038 381.10921941 -206 372 C-205.49017578 371.57106445 -204.98035156 371.14212891 -204.45507812 370.70019531 C-195.13605013 362.88850159 -185.45140728 356.20766897 -175 350 C-177.80942336 348.12705109 -180.59480102 346.6233455 -183.6015625 345.09375 C-184.72369141 344.51955322 -185.84582031 343.94535645 -187.00195312 343.35375977 C-187.59371338 343.05124298 -188.18547363 342.7487262 -188.79516602 342.43704224 C-200.08790541 336.65412758 -211.19812134 330.66465578 -222 324 C-222.96035156 323.4121875 -223.92070312 322.824375 -224.91015625 322.21875 C-237.77136128 314.18759988 -250.1273686 305.42418991 -262 296 C-262.92167969 295.27296875 -263.84335937 294.5459375 -264.79296875 293.796875 C-281.86913063 280.09652001 -298.75528201 264.46003511 -312 247 C-312.93860897 245.79021473 -313.87742581 244.58059072 -314.81640625 243.37109375 C-347.74126015 200.59429035 -368.87460815 147.42111231 -362.12084961 92.62548828 C-359.7922465 76.69216442 -354.92284405 61.9814895 -347 48 C-346.51917969 47.10539062 -346.03835938 46.21078125 -345.54296875 45.2890625 C-332.15403643 21.44364413 -310.73521458 2.80428808 -284.49609375 -5.140625 C-274.13490868 -7.68750848 -264.18969115 -8.40393224 -253.5625 -8.375 C-252.81121826 -8.37445618 -252.05993652 -8.37391235 -251.28588867 -8.37335205 C-239.12909963 -8.33295009 -227.72533851 -7.42484532 -216 -4 C-215.27603027 -3.79632813 -214.55206055 -3.59265625 -213.80615234 -3.3828125 C-196.12120303 1.70254235 -179.00254588 9.44937942 -162.9609375 18.40625 C-160.34709292 19.81317426 -157.77886924 20.96696311 -155 22 C-154.38253906 21.09378906 -153.76507813 20.18757813 -153.12890625 19.25390625 C-138.64420595 -1.7171698 -117.55882146 -18.0634052 -92 -23 C-91.11054688 -23.20109375 -90.22109375 -23.4021875 -89.3046875 -23.609375 C-57.95517487 -29.93053013 -25.10508922 -18.86048704 0 0 Z "
     fill="#010100"
     transform="translate(449,138)"
     id="path2" />
  <path
     d="M0 0 C1.3193454 0.00323273 1.3193454 0.00323273 2.66534424 0.00653076 C16.80910158 0.06199648 30.63560001 0.65281577 44.5625 3.3125 C45.60470703 3.51117676 46.64691406 3.70985352 47.72070312 3.91455078 C83.1946288 10.93258439 114.494723 25.57583536 142.5625 48.3125 C143.08763184 48.73466797 143.61276367 49.15683594 144.15380859 49.59179688 C163.29632756 65.05462725 179.0558219 83.08799932 191.5625 104.3125 C191.92794922 104.92963867 192.29339844 105.54677734 192.66992188 106.18261719 C203.13282988 124.14364038 210.10952876 144.05473122 214.5625 164.3125 C214.85447266 165.54468262 214.85447266 165.54468262 215.15234375 166.80175781 C221.46711033 194.07288213 221.39472664 226.159176 214.5625 253.3125 C214.34287598 254.18551758 214.12325195 255.05853516 213.89697266 255.95800781 C202.02362764 301.45148971 173.98177333 340.75268588 133.30078125 364.88671875 C71.10231765 400.7344207 -3.07277761 405.48785673 -71.56665039 387.22827148 C-100.68900836 379.13586405 -128.92305411 365.65841569 -151.4375 345.3125 C-152.85295684 344.10274969 -154.26946142 342.89422303 -155.6875 341.6875 C-156.9438439 340.569589 -158.19384569 339.44451102 -159.4375 338.3125 C-160.44103516 337.40757812 -160.44103516 337.40757812 -161.46484375 336.484375 C-193.66652609 305.97138848 -211.40635444 258.67708858 -212.7734375 214.91015625 C-212.80361791 212.39858508 -212.81619493 209.88674978 -212.8125 207.375 C-212.81162384 206.70852448 -212.81074768 206.04204895 -212.80984497 205.3553772 C-212.75422884 192.38219364 -211.33401178 179.96666165 -208.4375 167.3125 C-208.19612305 166.25724121 -207.95474609 165.20198242 -207.70605469 164.11474609 C-196.58021136 116.95936359 -171.43221193 74.57046255 -132.13623047 45.57128906 C-130.48240162 44.34577289 -128.85215656 43.09353536 -127.22265625 41.8359375 C-102.95607961 23.44918482 -74.05476154 11.76584105 -44.6875 4.5625 C-43.48395874 4.26424316 -43.48395874 4.26424316 -42.25610352 3.95996094 C-28.19440388 0.6626373 -14.36943893 -0.06348695 0 0 Z "
     fill="#F9C82C"
     transform="translate(706.4375,253.6875)"
     id="path3" />
  <path
     d="M0 0 C1.00726639 0.00373123 1.00726639 0.00373123 2.03488159 0.00753784 C12.18488449 0.06579901 21.68107749 0.50997386 31.5 3.3125 C32.2537793 3.52229492 33.00755859 3.73208984 33.78417969 3.94824219 C73.7278639 15.32671719 106.26850958 38.53591752 133.5 69.3125 C133.96116211 69.82893066 134.42232422 70.34536133 134.89746094 70.87744141 C194.25511496 137.6706 227.29281982 240.06186499 237.5 341.3125 C237.5520459 342.13878906 237.6040918 342.96507812 237.65771484 343.81640625 C237.78734308 346.14877861 237.87281034 348.47751146 237.9375 350.8125 C237.97746094 352.1221875 238.01742188 353.431875 238.05859375 354.78125 C237.31759039 359.46563487 235.84606457 361.00591702 232.5 364.3125 C221.04745306 369.91152295 207.07748252 363.63816878 195.828125 359.7890625 C193.13043354 358.85231478 190.43944753 357.89762986 187.75 356.9375 C187.02955505 356.68194336 186.30911011 356.42638672 185.5668335 356.16308594 C149.81979856 343.45718642 114.75236738 328.59896161 80.5 312.3125 C79.41976562 311.80106445 78.33953125 311.28962891 77.2265625 310.76269531 C46.43362516 296.08850754 16.8935044 277.51987337 -8.28125 254.34765625 C-10.27699099 252.5170558 -12.31230611 250.75413517 -14.375 249 C-22.67121224 241.7429093 -30.33428598 233.89927511 -37.171875 225.25390625 C-38.84128788 223.14473192 -40.52951505 221.07959718 -42.265625 219.02734375 C-66.94829659 189.55458127 -86.45639117 149.5734608 -86.703125 110.4375 C-86.70882507 109.70990479 -86.71452515 108.98230957 -86.72039795 108.23266602 C-86.72978015 106.69988424 -86.73635467 105.16708292 -86.74023438 103.63427734 C-86.74986058 101.34564736 -86.7809152 99.0579484 -86.8125 96.76953125 C-87.02057964 68.12080985 -76.84878349 42.65046009 -56.6875 22.0625 C-46.72023111 12.25456858 -35.72941176 6.45007293 -22.5 2.3125 C-21.31921875 1.93480469 -20.1384375 1.55710938 -18.921875 1.16796875 C-12.73190726 -0.3111299 -6.32494606 -0.02780454 0 0 Z "
     fill="#FCFCFC"
     transform="translate(194.5,150.6875)"
     id="path4" />
  <path
     d="M0 0 C-0.0721875 0.8559375 -0.144375 1.711875 -0.21875 2.59375 C-6.90700674 95.48620475 23.31106247 182.96104379 83 254 C84.24716797 255.52560547 84.24716797 255.52560547 85.51953125 257.08203125 C91.72061808 264.58037479 98.37343363 271.55463006 105.25 278.4375 C106.08958252 279.27788818 106.92916504 280.11827637 107.79418945 280.98413086 C112.7059839 285.85225628 117.71974769 290.53424021 123 295 C123.60457031 295.51135498 124.20914063 296.02270996 124.83203125 296.54956055 C153.45415327 320.51289362 185.13608228 339.94018671 218.0625 357.375 C218.84826416 357.79217285 219.63402832 358.2093457 220.44360352 358.63916016 C224.89048403 360.97430834 229.35512381 363.08776678 234 365 C234 365.66 234 366.32 234 367 C205.75304943 373.02099133 205.75304943 373.02099133 194.375 374.8125 C193.32445435 374.97939331 193.32445435 374.97939331 192.25268555 375.1496582 C178.62360299 377.20143567 164.88166981 377.51364021 151.12329102 377.73461914 C148.59112773 377.78636878 146.05932914 377.86141724 143.52856445 377.96020508 C118.36880882 378.92090088 118.36880882 378.92090088 107.88960266 369.72737122 C106.78979256 368.690315 105.70392376 367.63823856 104.6337738 366.57060242 C101.8533667 363.89770235 98.75758961 361.63843398 95.6875 359.3125 C87.01690286 352.48870692 78.48792373 345.54991392 70.33203125 338.11328125 C68.24965264 336.22623463 66.13496936 334.38941767 64 332.5625 C59.08970574 328.28964759 54.56639171 323.63343498 50 319 C47.20058554 316.18661175 44.38291611 313.39354275 41.546875 310.6171875 C34.20660059 303.40300487 27.36799141 296.09877882 21 288 C20.02280612 286.82019652 19.0420931 285.64330233 18.05859375 284.46875 C4.3799569 268.06818358 -7.43140789 250.54527361 -18 232 C-18.5244873 231.0826709 -19.04897461 230.1653418 -19.58935547 229.22021484 C-31.92144432 207.4862511 -42.49709742 184.86333514 -50 161 C-50.29213379 160.0821875 -50.58426758 159.164375 -50.88525391 158.21875 C-58.31899166 134.62109289 -63.0347527 110.66972285 -65 86 C-65.08749512 84.95408691 -65.17499023 83.90817383 -65.26513672 82.83056641 C-66.12413552 71.21319785 -66.58683733 62.26532307 -58.796875 53.01171875 C-58.34248047 52.52493652 -57.88808594 52.0381543 -57.41992188 51.53662109 C-55.9216387 49.91519841 -54.53150653 48.23373173 -53.140625 46.51953125 C-39.87240289 30.37634862 -25.10850158 16.21864411 -7.91259766 4.34008789 C-6.53891592 3.37759886 -5.19784135 2.36793742 -3.88037109 1.32983398 C-2 0 -2 0 0 0 Z "
     fill="#F9C82C"
     transform="translate(276,513)"
     id="path5" />
  <path
     d="M0 0 C15.09500722 12.69796547 26.34649867 27.8538995 36.26171875 44.79296875 C36.80441406 45.71851563 37.34710938 46.6440625 37.90625 47.59765625 C54.34543911 78.12110932 59.48669173 112.86921014 59.51171875 147.04296875 C59.51239349 147.8782309 59.51306824 148.71349304 59.51376343 149.57406616 C59.49556969 163.83472306 58.65479329 177.71267447 56.26171875 191.79296875 C56.10606445 192.746875 55.95041016 193.70078125 55.79003906 194.68359375 C49.46944974 232.43050642 36.6714921 269.49142755 24.26171875 305.60546875 C23.91230225 306.62398926 23.56288574 307.64250977 23.20288086 308.69189453 C21.16178397 314.52969974 18.87469578 320.18740333 16.26171875 325.79296875 C15.60171875 325.79296875 14.94171875 325.79296875 14.26171875 325.79296875 C14.14957031 324.30990234 14.14957031 324.30990234 14.03515625 322.796875 C6.83745535 239.0105234 -25.27221585 147.58053868 -99.6328125 44.12109375 C-101.48894838 42.06866892 -103.27199117 39.97451166 -105.05078125 37.85546875 C-108.09968906 34.35777311 -111.39687877 31.18884946 -114.80078125 28.04296875 C-115.5429187 27.35279663 -115.5429187 27.35279663 -116.30004883 26.64868164 C-119.59992634 23.64735146 -122.98841605 21.17772701 -126.73828125 18.79296875 C-123.42210852 12.16062329 -118.80296324 7.16222784 -113.73828125 1.79296875 C-113.19429688 1.17292969 -112.6503125 0.55289063 -112.08984375 -0.0859375 C-82.72114942 -32.21260566 -30.92898461 -25.11056846 0 0 Z "
     fill="#FCFCFC"
     transform="translate(436.73828125,155.20703125)"
     id="path6" />
  <path
     d="M0 0 C4.60136556 0.72421591 8.8041125 2.32794801 13.1328125 3.984375 C14.76159986 4.59667053 16.39051049 5.20863821 18.01953125 5.8203125 C20.54985717 6.77506103 23.07906752 7.73248039 25.60595703 8.69628906 C37.58235658 13.25487893 49.54479151 16.97810363 62 20 C62.25245483 21.14166626 62.25245483 21.14166626 62.51000977 22.30639648 C63.30716442 25.87887719 64.14883508 29.4400964 65 33 C65.19867676 33.83644043 65.39735352 34.67288086 65.60205078 35.53466797 C75.71447448 77.59780565 95.69713126 115.58469306 123 149 C123.6494458 149.80606689 123.6494458 149.80606689 124.31201172 150.62841797 C130.93185925 158.80878159 138.1481854 166.34915758 145.5625 173.8125 C146.42472168 174.68398682 147.28694336 175.55547363 148.17529297 176.45336914 C154.14213758 182.39140206 160.40998089 187.76826222 167 193 C168.4129428 194.14951544 169.82571766 195.29923735 171.23828125 196.44921875 C209.08991074 226.75076631 255.30946976 248.0177045 303 257 C304.74990234 257.33451172 304.74990234 257.33451172 306.53515625 257.67578125 C309.02064147 258.13768558 311.50672815 258.5826241 314 259 C309.95943447 265.75132468 305.03430624 271.43725499 299.671875 277.14453125 C297.49366318 279.47241552 295.38576803 281.82960223 293.3125 284.25 C290.34712134 287.6754016 287.17838832 290.8440145 283.9453125 294.015625 C282.13978228 295.85741084 280.51204771 297.75921837 278.875 299.75 C275.50983221 303.62692141 271.82190499 307.08246038 268 310.5 C267.41847168 311.04108398 266.83694336 311.58216797 266.23779297 312.13964844 C265.66432129 312.64012695 265.09084961 313.14060547 264.5 313.65625 C263.9946875 314.10806641 263.489375 314.55988281 262.96875 315.02539062 C258.96437344 317.00771592 254.92643831 316.24189678 250.74047852 315.14892578 C249.63115967 314.7517334 248.52184082 314.35454102 247.37890625 313.9453125 C246.76608292 313.72854355 246.15325958 313.5117746 245.52186584 313.28843689 C243.53078481 312.57947938 241.54653464 311.85342389 239.5625 311.125 C238.16784327 310.62025831 236.7731488 310.11562089 235.37841797 309.61108398 C195.84090598 295.21550192 158.2796389 276.96597194 125 251 C124.18789063 250.36964844 123.37578125 249.73929688 122.5390625 249.08984375 C120.00059509 247.08946571 117.49725717 245.05158148 115 243 C113.53433594 241.81470703 113.53433594 241.81470703 112.0390625 240.60546875 C104.18226062 234.13670585 96.89788807 227.1112148 89.6875 219.9375 C88.7687207 219.02790527 87.84994141 218.11831055 86.90332031 217.18115234 C80.84286956 211.09334311 75.34639636 204.71807809 70 198 C68.99941506 196.7915132 67.99597093 195.58538145 66.98828125 194.3828125 C33.65958918 154.06387864 12.24384143 105.30548984 3 54 C2.83483887 53.11586426 2.66967773 52.23172852 2.49951172 51.32080078 C-0.59921832 34.26977436 -0.31742307 17.25804797 0 0 Z "
     fill="#F9C82C"
     transform="translate(345,517)"
     id="path7" />
  <path
     d="M0 0 C17.9442891 13.97055377 28.76947938 34.44455392 31.89013672 56.87255859 C34.4892473 81.18122939 29.1025944 106.12079807 13.9296875 125.62109375 C3.3592591 137.98849498 -10.63367333 147.64113292 -27.17041016 149.21362305 C-45.05430456 150.13812622 -60.44450882 146.06154999 -74.0078125 133.87109375 C-89.86637341 118.98922689 -98.86270348 99.362132 -100.00708008 77.63696289 C-100.78198625 53.18303541 -95.92779354 30.62731984 -79.5078125 11.80859375 C-77.9827191 10.1886626 -76.4414182 8.58380754 -74.8828125 6.99609375 C-74.19574219 6.28453125 -73.50867188 5.57296875 -72.80078125 4.83984375 C-52.53057746 -14.71582596 -22.74503208 -15.81057108 0 0 Z "
     fill="#010101"
     transform="translate(659.8828125,338.00390625)"
     id="path8" />
  <path
     d="M0 0 C19.393107 13.34017887 30.13745665 30.45043117 35.54638672 53.30908203 C36.45711022 58.71166244 36.18467867 64.22257927 36.1875 69.6875 C36.19974609 70.91662109 36.21199219 72.14574219 36.22460938 73.41210938 C36.2611653 96.25955995 28.1647852 115.77600313 12 132 C11.46117187 132.56203125 10.92234375 133.1240625 10.3671875 133.703125 C0.48928437 143.13428879 -14.12267693 148.03752969 -27.5 148.375 C-45.61716721 147.93535186 -60.21853682 139.22570051 -72.625 126.4375 C-88.73984503 107.8171667 -93.3826694 82.73611715 -92.23388672 58.77929688 C-90.43675281 37.42379325 -79.63352044 17.89032081 -63.5546875 4.03515625 C-45.26140349 -10.53793392 -20.04874106 -12.60206581 0 0 Z "
     fill="#010101"
     transform="translate(852,336)"
     id="path9" />
  <path
     d="M0 0 C1.47761777 -0.02041873 2.95591767 -0.00758647 4.4331665 0.03123474 C5.24506471 0.02878628 6.05696291 0.02633781 6.89346409 0.02381516 C9.59544809 0.02297698 12.29501481 0.06498464 14.99664307 0.10716248 C16.90257361 0.11533331 18.80851681 0.12091463 20.71446228 0.12405396 C25.80617108 0.14018242 30.89683786 0.19363769 35.98817062 0.2555542 C41.21490635 0.313981 46.44181028 0.34180214 51.66876221 0.37376404 C60.84174568 0.43505188 70.01407815 0.52763254 79.18661022 0.63645744 C86.21714488 0.71876999 93.24740059 0.77111391 100.27828979 0.81039429 C104.80292453 0.83905494 109.3271403 0.88589468 113.85150146 0.94282532 C115.82239253 0.96631143 117.79335375 0.98454091 119.76434326 0.99732971 C122.40895446 1.01814193 125.05176912 1.06406449 127.69586182 1.11888123 C128.43624191 1.12014511 129.17662201 1.121409 129.93943787 1.12271118 C133.3436854 1.22265938 135.0991297 1.50030547 137.80548096 3.64134216 C141.90205406 9.04611248 141.07331145 16.23302225 140.38726807 22.72825623 C137.65715565 36.97101182 130.99519027 49.95352753 121.38726807 60.72825623 C120.75949463 61.43852966 120.13172119 62.1488031 119.48492432 62.88059998 C106.07415492 77.16896573 87.07196717 84.30955796 67.78497314 85.18138123 C48.21169317 85.58508407 30.15449003 77.61293654 15.88726807 64.41575623 C15.06226807 63.52888123 14.23726807 62.64200623 13.38726807 61.72825623 C12.3876001 60.75372498 12.3876001 60.75372498 11.36773682 59.75950623 C-1.63981673 46.4638808 -7.98529705 28.51070305 -8.14398193 10.10325623 C-7.27649211 4.59214441 -5.70816386 1.15065439 0 0 Z "
     fill="#000000"
     transform="translate(658.6127319335938,512.2717437744141)"
     id="path10" />
  <path
     d="M0 0 C1.8032808 2.7049212 2.57689573 4.49306605 3.48046875 7.54296875 C3.7535083 8.44378174 4.02654785 9.34459473 4.30786133 10.27270508 C4.59814209 11.2345874 4.88842285 12.19646973 5.1875 13.1875 C20.01029309 60.72479652 51.72100929 94.62684443 93 121 C93.63905273 121.40879395 94.27810547 121.81758789 94.93652344 122.23876953 C133.59748413 146.57554656 182.04251672 154.79927631 227 156 C225.57060974 164.609347 223.0102561 172.8263985 220.375 181.125 C219.95004752 182.47641376 219.52556499 183.82797539 219.1015625 185.1796875 C218.07311213 188.45484485 217.03834632 191.72796462 216 195 C166.49916778 191.19582871 118.77599886 168.03747977 80 138 C79.44489746 137.57090332 78.88979492 137.14180664 78.31787109 136.69970703 C70.47730371 130.58667885 63.20904671 123.83451899 56 117 C55.24589844 116.2884375 54.49179687 115.576875 53.71484375 114.84375 C48.32520139 109.61483256 43.66607199 103.87348628 39 98 C38.21753906 97.06929687 37.43507813 96.13859375 36.62890625 95.1796875 C28.57359991 85.30710405 22.7995297 74.3053614 17 63 C16.57799316 62.18724609 16.15598633 61.37449219 15.72119141 60.53710938 C-4.9723783 20.34399146 -4.9723783 20.34399146 -2.68359375 4.859375 C-2 3 -2 3 0 0 Z "
     fill="#F8CA2D"
     transform="translate(479,516)"
     id="path11" />
  <path
     d="M0 0 C17.9442891 13.97055377 28.76947938 34.44455392 31.89013672 56.87255859 C34.4892473 81.18122939 29.1025944 106.12079807 13.9296875 125.62109375 C3.3592591 137.98849498 -10.63367333 147.64113292 -27.17041016 149.21362305 C-45.05430456 150.13812622 -60.44450882 146.06154999 -74.0078125 133.87109375 C-89.86637341 118.98922689 -98.86270348 99.362132 -100.00708008 77.63696289 C-100.78198625 53.18303541 -95.92779354 30.62731984 -79.5078125 11.80859375 C-77.9827191 10.1886626 -76.4414182 8.58380754 -74.8828125 6.99609375 C-74.19574219 6.28453125 -73.50867188 5.57296875 -72.80078125 4.83984375 C-52.53057746 -14.71582596 -22.74503208 -15.81057108 0 0 Z M-71.72265625 22.2421875 C-85.19676327 40.66957675 -89.75127578 61.22494498 -86.48730469 83.72216797 C-83.20392118 101.12278459 -75.14951076 116.25897099 -61.046875 127.1953125 C-58.38679682 128.97242355 -55.72564812 130.53186215 -52.8828125 131.99609375 C-52.191875 132.35445312 -51.5009375 132.7128125 -50.7890625 133.08203125 C-41.68326638 136.89946116 -28.36268834 136.39927172 -19.13671875 133.02734375 C-2.19454812 125.27564003 8.62474787 112.30130967 15.1171875 94.99609375 C21.35443056 74.28324908 20.4631409 53.6590087 11.1171875 33.99609375 C3.16663848 19.90431101 -7.72396589 8.85171101 -23.5078125 4.05859375 C-41.64756463 -0.08763531 -60.09084769 8.04199658 -71.72265625 22.2421875 Z "
     fill="#030201"
     transform="translate(659.8828125,338.00390625)"
     id="path12" />
  <path
     d="M0 0 C19.393107 13.34017887 30.13745665 30.45043117 35.54638672 53.30908203 C36.45711022 58.71166244 36.18467867 64.22257927 36.1875 69.6875 C36.19974609 70.91662109 36.21199219 72.14574219 36.22460938 73.41210938 C36.2611653 96.25955995 28.1647852 115.77600313 12 132 C11.46117187 132.56203125 10.92234375 133.1240625 10.3671875 133.703125 C0.48928437 143.13428879 -14.12267693 148.03752969 -27.5 148.375 C-45.61716721 147.93535186 -60.21853682 139.22570051 -72.625 126.4375 C-88.73984503 107.8171667 -93.3826694 82.73611715 -92.23388672 58.77929688 C-90.43675281 37.42379325 -79.63352044 17.89032081 -63.5546875 4.03515625 C-45.26140349 -10.53793392 -20.04874106 -12.60206581 0 0 Z M-63 23 C-76.69562323 39.29914765 -80.73210091 59.23565777 -79 80 C-77.0089096 95.92521161 -69.47910428 109.8965755 -58 121 C-57.41476562 121.58265625 -56.82953125 122.1653125 -56.2265625 122.765625 C-48.17641438 130.24886128 -37.48532406 134.56765551 -26.4765625 134.24609375 C-12.12419345 132.81991197 -0.645514 126.49717545 8.73632812 115.58886719 C21.40165454 99.6642257 24.74553597 79.91800691 22.57421875 60.1171875 C19.28979006 41.13601063 10.37011306 25.78375335 -5 14 C-25.05868851 1.53929956 -47.11582657 6.2586705 -63 23 Z "
     fill="#030201"
     transform="translate(852,336)"
     id="path13" />
  <path
     d="M0 0 C14.67967659 11.27309515 23.50294139 27.82718785 26.27734375 46.07421875 C28.34183283 67.29257877 23.67615516 87.49678438 10.5625 104.5625 C2.85522284 113.67110028 -7.4588747 121.02894729 -19.44140625 122.96484375 C-33.36894629 123.98039354 -45.30218201 122.3827495 -56.328125 112.94921875 C-57.37419922 111.96695313 -57.37419922 111.96695313 -58.44140625 110.96484375 C-59.19035156 110.26875 -59.93929687 109.57265625 -60.7109375 108.85546875 C-74.47757932 94.87775406 -79.74955025 76.07901974 -79.94140625 56.90234375 C-79.75961707 37.25383607 -73.49240793 19.17321664 -59.44140625 4.96484375 C-41.52481482 -10.76942602 -20.02602692 -13.74791108 0 0 Z M-56.734375 18.5078125 C-67.13425518 32.02960793 -70.89849331 47.18648628 -69.44140625 63.96484375 C-67.50679783 77.6993234 -62.06741173 90.79932597 -51.2265625 99.8046875 C-42.21137544 106.54115429 -32.79995043 110.453734 -21.44140625 108.96484375 C-12.63120139 107.18383344 -5.94298195 104.18540832 0.55859375 97.96484375 C1.18378906 97.36800781 1.80898438 96.77117187 2.453125 96.15625 C13.29404017 84.7957267 17.04232564 70.35771744 16.91235352 55.09570312 C16.462597 38.949284 10.98551868 25.98379779 -0.05859375 14.24609375 C-8.1775605 6.6321345 -18.5514762 3.53416114 -29.48046875 3.6953125 C-40.1945443 4.67060434 -49.63234679 10.63145753 -56.734375 18.5078125 Z "
     fill="#FAFAFA"
     transform="translate(652.44140625,350.03515625)"
     id="path14" />
  <path
     d="M0 0 C14.90324804 12.74170825 22.97051946 29.62382159 24.67626953 49.12207031 C25.85540964 67.33746057 21.22214355 85.60772425 8.99609375 99.5625 C7.51740272 101.08351047 6.01911446 102.58587956 4.49609375 104.0625 C3.92117188 104.64644531 3.34625 105.23039062 2.75390625 105.83203125 C-5.16058348 113.3110347 -16.20000978 116.92352274 -26.94140625 117.375 C-40.37210897 116.97929472 -51.90362535 109.66466994 -60.92578125 100.19140625 C-75.02830638 83.81005555 -78.7217725 64.0183459 -77.50390625 43.0625 C-75.76563211 26.12723515 -66.75329573 9.51650457 -53.66796875 -1.37109375 C-36.83531975 -13.55501478 -16.26403522 -12.58496329 0 0 Z M-56.50390625 16.0625 C-68.3673917 31.66036475 -70.34039824 48.59553079 -68.078125 67.6484375 C-65.49423119 79.47411099 -59.17697653 90.6776829 -49.50390625 98.0625 C-38.77828496 104.38033172 -28.75579381 106.98707811 -16.38671875 104.4140625 C-5.07767008 100.66573759 3.63234404 92.73875606 8.96875 82.13671875 C12.90696599 73.10063717 14.87945536 64.59875191 14.80859375 54.75 C14.8029541 53.92040771 14.79731445 53.09081543 14.79150391 52.23608398 C14.49631817 37.2152216 9.3027397 24.16024359 -1.1484375 13.25390625 C-9.96992504 5.04685068 -19.08645213 1.30813071 -31.16796875 1.66015625 C-41.62772344 2.92169575 -49.58992102 8.33369502 -56.50390625 16.0625 Z "
     fill="#FAFAFA"
     transform="translate(850.50390625,352.9375)"
     id="path15" />
  <path
     d="M0 0 C3.24971186 1.7355604 5.41173685 4.10481694 7.4375 7.1875 C8.47280817 12.36404083 8.4997011 17.57336994 5.66015625 22.16796875 C2.35759252 26.08421181 0.50363625 27.84963638 -4.75 28.375 C-8.02646841 28.33925671 -9.81497451 27.80558697 -12.375 25.75 C-16.78620429 21.12873837 -17.45482762 17.7385303 -17.31640625 11.47265625 C-16.71055018 6.73800326 -14.30433221 4.08694351 -10.75 1.125 C-7.09399022 -0.37064037 -3.84729953 -0.80559892 0 0 Z "
     fill="#FBFBFB"
     transform="translate(618,373)"
     id="path16" />
  <path
     d="M0 0 C3.12706257 2.57114034 5.77249682 5.09430805 7 9 C7.45042231 14.58523668 7.25122574 18.23153558 4 23 C0.77010591 25.78945399 -1.2663318 26.89519026 -5.5 27.5 C-9.6735008 26.9037856 -11.78241364 25.69379323 -15 23 C-17.94136342 18.36208225 -17.61467835 13.30160079 -17 8 C-15.19493277 4.1121629 -13.69398209 2.47807655 -10.1875 0.0625 C-6.21540636 -1.26153121 -4.01699158 -1.16857937 0 0 Z "
     fill="#FBFBFB"
     transform="translate(817,374)"
     id="path17" />
  <path
     d="M0 0 C2.44800876 3.67201314 3.44921696 7.23580454 4.6875 11.4375 C4.92533203 12.20126953 5.16316406 12.96503906 5.40820312 13.75195312 C5.62798828 14.49251953 5.84777344 15.23308594 6.07421875 15.99609375 C6.27619873 16.66825928 6.47817871 17.3404248 6.6862793 18.03295898 C7.05371582 20.3368003 6.66391023 21.77867499 6 24 C5.6503582 26.33094534 5.31445513 28.66404762 5 31 C-0.6011785 25.3988215 -2.98808591 11.80372989 -3 4 C-1.53515625 1.66015625 -1.53515625 1.66015625 0 0 Z "
     fill="#F3D431"
     transform="translate(479,516)"
     id="path18" />
  <path
     d="M0 0 C0.66 0.33 1.32 0.66 2 1 C2 1.66 2 2.32 2 3 C1.34 3 0.68 3 0 3 C0.0515625 3.69480469 0.103125 4.38960938 0.15625 5.10546875 C-0.03347219 8.62007238 -1.08685786 11.09760163 -2.5 14.3125 C-2.9640625 15.38113281 -3.428125 16.44976562 -3.90625 17.55078125 C-4.2671875 18.35902344 -4.628125 19.16726563 -5 20 C-6.76982406 15.85264121 -5.05314714 12.30447511 -3.625 8.3125 C-3.39039063 7.62349609 -3.15578125 6.93449219 -2.9140625 6.22460938 C-1.16171288 1.16171288 -1.16171288 1.16171288 0 0 Z "
     fill="#F0D933"
     transform="translate(508,389)"
     id="path19" />
  <path
     d="M0 0 C0.66 0.66 1.32 1.32 2 2 C1.6875 3.6875 1.6875 3.6875 1 6 C0.6503582 8.33094534 0.31445513 10.66404762 0 13 C-2.51699845 10.48300155 -3.10964078 8.42445854 -4 5 C-3.625 2.625 -3.625 2.625 -3 1 C-2.67 1.99 -2.34 2.98 -2 4 C-1.34 2.68 -0.68 1.36 0 0 Z "
     fill="#FAE035"
     transform="translate(484,534)"
     id="path20" />
  <path
     d="M0 0 C0.33 0 0.66 0 1 0 C0.57910004 5.60461531 0.08386889 10.72086547 -2 16 C-3.0399441 12.88016769 -3.00875465 11.22213621 -2.6875 8 C-2.60886719 7.13375 -2.53023437 6.2675 -2.44921875 5.375 C-2 3 -2 3 0 0 Z "
     fill="#F5DC31"
     transform="translate(921,497)"
     id="path21" />
  <path
     d="M0 0 C0.66 0.66 1.32 1.32 2 2 C0.40423801 3.50893816 -1.20189911 5.00691076 -2.8125 6.5 C-4.15248047 7.75296875 -4.15248047 7.75296875 -5.51953125 9.03125 C-8 11 -8 11 -11 11 C-7.37 7.37 -3.74 3.74 0 0 Z "
     fill="#FCE636"
     transform="translate(871,460)"
     id="path22" />
  <path
     d="M0 0 C0.66 0.33 1.32 0.66 2 1 C2 3.31 2 5.62 2 8 C0.68 8.33 -0.64 8.66 -2 9 C-1.34 6.03 -0.68 3.06 0 0 Z "
     fill="#EECD2F"
     transform="translate(798,535)"
     id="path23" />
  <path
     d="M0 0 C0.33 0.66 0.66 1.32 1 2 C1.66 2 2.32 2 3 2 C4.125 7.625 4.125 7.625 3 11 C2.49384702 9.73160474 1.99530901 8.46016898 1.5 7.1875 C1.2215625 6.47980469 0.943125 5.77210938 0.65625 5.04296875 C0 3 0 3 0 0 Z "
     fill="#F9DE33"
     transform="translate(228,677)"
     id="path24" />
  <path
     d="M0 0 C2 1 2 1 3.1875 3.375 C4 6 4 6 3 9 C2.34 7.68 1.68 6.36 1 5 C0.01 5.495 0.01 5.495 -1 6 C-1.042721 4.33388095 -1.04063832 2.66617115 -1 1 C-0.67 0.67 -0.34 0.34 0 0 Z "
     fill="#F8DC34"
     transform="translate(486,540)"
     id="path25" />
  <path
     d="M0 0 C1.61949011 2.57213134 2.04408751 3.67669159 1.625 6.75 C1.41875 7.4925 1.2125 8.235 1 9 C-0.37562854 7.71034824 -1.70766393 6.37310707 -3 5 C-3 4.34 -3 3.68 -3 3 C-2.01 3 -1.02 3 0 3 C0 2.01 0 1.02 0 0 Z "
     fill="#F3C22B"
     transform="translate(482,531)"
     id="path26" />
</svg>
