<?xml version="1.0" encoding="UTF-8" standalone="no"?>
<svg
   version="1.1"
   width="1024"
   height="1024"
   id="svg23"
   sodipodi:docname="bee3.svg"
   inkscape:version="1.4 (e7c3feb1, 2024-10-09)"
   xmlns:inkscape="http://www.inkscape.org/namespaces/inkscape"
   xmlns:sodipodi="http://sodipodi.sourceforge.net/DTD/sodipodi-0.dtd"
   xmlns="http://www.w3.org/2000/svg"
   xmlns:svg="http://www.w3.org/2000/svg">
  <defs
     id="defs23" />
  <sodipodi:namedview
     id="namedview23"
     pagecolor="#ffffff"
     bordercolor="#000000"
     borderopacity="0.25"
     inkscape:showpageshadow="2"
     inkscape:pageopacity="0.0"
     inkscape:pagecheckerboard="0"
     inkscape:deskcolor="#d1d1d1"
     inkscape:zoom="0.14607447"
     inkscape:cx="68.458234"
     inkscape:cy="-65.035323"
     inkscape:window-width="1512"
     inkscape:window-height="808"
     inkscape:window-x="0"
     inkscape:window-y="38"
     inkscape:window-maximized="0"
     inkscape:current-layer="svg23" />
  <path
     d="M0 0 C1.66312696 1.22689693 3.30775375 2.47909696 4.9375 3.75 C6.48050781 4.95269531 6.48050781 4.95269531 8.0546875 6.1796875 C35.13544853 27.89084891 48.81699346 60.01754024 53.9375 93.75 C53.9375 95.07 53.9375 96.39 53.9375 97.75 C54.53175781 97.55664062 55.12601562 97.36328125 55.73828125 97.1640625 C62.08665475 95.16970566 68.37163636 93.80124342 74.9375 92.75 C75.96786377 92.58338867 76.99822754 92.41677734 78.05981445 92.24511719 C118.17267135 85.92375398 158.66697549 86.14851171 197.9375 97.75 C198.08445312 96.76644531 198.23140625 95.78289062 198.3828125 94.76953125 C204.06135306 58.85375037 217.86322603 25.45896525 247.57421875 2.8828125 C261.03649608 -6.73101541 279.21082193 -17.11323886 296.12109375 -16.74609375 C300.54645989 -15.96659098 303.17636314 -13.69918715 305.9375 -10.25 C307.66325116 -6.79849768 307.29854194 -3.0310938 306.9375 0.75 C304.97470261 5.39873067 301.66161337 8.4989911 297.05395508 10.61499023 C294.86045639 11.46788909 292.65399555 12.27134427 290.4375 13.0625 C278.81595926 17.41043143 268.46525032 22.67686805 258.9375 30.75 C258.26203125 31.28109375 257.5865625 31.8121875 256.890625 32.359375 C235.55715901 49.72382406 228.44369747 79.78133418 224.9375 105.75 C225.55012695 105.91806152 226.16275391 106.08612305 226.79394531 106.25927734 C253.39250137 113.68308858 277.19137921 127.61301404 296.9375 146.75 C297.46730469 147.25402344 297.99710938 147.75804687 298.54296875 148.27734375 C309.570269 158.78078176 318.57184784 170.31349466 327.29394531 182.75683594 C331.92259505 189.27851804 337.25123836 195.13503945 342.9375 200.75 C346.56909471 199.72861399 348.86426566 198.04782983 351.59765625 195.5546875 C386.65906531 164.38321584 428.36061143 149.91610896 474.9375 151.75 C480.10180561 152.18084073 484.97675879 153.25219166 489.9375 154.75 C491.19046875 155.11351562 492.4434375 155.47703125 493.734375 155.8515625 C520.65096593 164.02508096 542.51540057 182.27704788 556.06298828 206.78613281 C572.60969524 237.93547435 573.31695965 272.99335477 563.75 306.5 C557.05705649 328.27786957 546.35681759 350.35333553 532.9375 368.75 C532.49825195 369.35618164 532.05900391 369.96236328 531.60644531 370.58691406 C523.05323393 382.34830359 514.17038438 393.85695061 503.69921875 403.98828125 C501.99689094 405.69060906 500.46700873 407.45494651 498.9375 409.3125 C495.62668938 413.23968493 491.84932535 416.43660204 487.9375 419.75 C486.96167969 420.61367188 485.98585938 421.47734375 484.98046875 422.3671875 C448.01006743 454.97675063 388.23610873 493.75 336.9375 493.75 C337.38480469 494.77996094 337.83210937 495.80992187 338.29296875 496.87109375 C347.65439183 518.7689771 353.99446827 542.28446385 354.140625 566.23828125 C354.14768463 567.01494644 354.15474426 567.79161163 354.16201782 568.59181213 C354.38660878 600.5497497 354.38660878 600.5497497 350.9375 615.75 C350.73882324 616.67312988 350.54014648 617.59625977 350.33544922 618.54736328 C345.85755867 639.07186687 338.9121918 658.2680661 328.9375 676.75 C328.32390625 677.905 327.7103125 679.06 327.078125 680.25 C299.47033569 730.44598057 252.75524553 764.60462146 198.38671875 780.66796875 C184.83198856 784.53542418 170.98561008 788.2730183 156.9375 789.75 C156.68532715 790.56911865 156.4331543 791.3882373 156.17333984 792.23217773 C154.74390273 796.30107529 153.00038926 800.13710187 151.1640625 804.03515625 C150.79904633 804.81386581 150.43403015 805.59257538 150.05795288 806.3948822 C149.28814337 808.03370792 148.51651302 809.67167943 147.74316406 811.30883789 C146.56617389 813.80470933 145.40006252 816.30547426 144.234375 818.80664062 C143.48243163 820.40395707 142.72984874 822.00097266 141.9765625 823.59765625 C141.45916 824.7118972 141.45916 824.7118972 140.93130493 825.84864807 C138.70997208 830.51646473 136.41621436 834.89096423 132.1875 838.0625 C128.75133564 839.11243911 125.41691589 839.6353318 121.9375 838.75 C116.87378115 835.142528 114.49204146 831.76630272 111.9921875 826.140625 C111.65502716 825.41437927 111.31786682 824.68813354 110.9704895 823.93988037 C109.90353378 821.63285041 108.85785327 819.31688562 107.8125 817 C107.10423989 815.46030411 106.39461561 813.92123498 105.68359375 812.3828125 C105.33975647 811.63511597 104.99591919 810.88741943 104.6416626 810.11706543 C103.96337432 808.64297549 103.28254063 807.17005391 102.59906006 805.69836426 C101.23852638 802.74163411 99.97495877 799.86211898 98.94238281 796.77148438 C98.14902971 794.40769407 97.51440929 792.68063075 95.9375 790.75 C92.38943494 788.98783775 88.8295946 788.36421339 84.9375 787.75 C83.98230469 787.57307617 83.02710938 787.39615234 82.04296875 787.21386719 C80.06402531 786.85159073 78.0824931 786.50323091 76.09887695 786.16748047 C34.07574869 778.95646873 -3.745959 759.20025727 -35.51855469 731.11035156 C-36.90061718 729.892633 -38.29706069 728.69128178 -39.6953125 727.4921875 C-44.61586952 723.23882466 -48.90016151 718.73958149 -53.0625 713.75 C-54.20332031 712.44095703 -54.20332031 712.44095703 -55.3671875 711.10546875 C-61.97353691 703.41864163 -67.70586011 695.3515066 -73.0625 686.75 C-73.4426123 686.14236816 -73.82272461 685.53473633 -74.21435547 684.90869141 C-102.41823379 639.13398043 -110.74231504 582.20617319 -98.62890625 530.08886719 C-95.57378563 517.47332601 -91.22963206 505.64780552 -86.0625 493.75 C-86.96613281 493.80929687 -87.86976563 493.86859375 -88.80078125 493.9296875 C-94.46148105 493.91552513 -99.81080951 492.30967936 -105.25 490.875 C-107.02383057 490.40743286 -107.02383057 490.40743286 -108.83349609 489.93041992 C-157.16712207 476.812568 -201.62314909 452.76350162 -238.60546875 418.984375 C-240.21714463 417.51874924 -241.84442582 416.07006451 -243.48828125 414.640625 C-281.70927951 381.2353506 -314.38746229 328.37124435 -318.89257812 277.33984375 C-321.06059979 244.29620323 -313.94462833 213.14494654 -291.8125 187.75 C-274.009493 168.60054709 -249.74266685 153.0690013 -222.88476562 151.57299805 C-172.0579762 150.66122531 -132.664598 168.13516618 -94.0625 200.75 C-86.76483181 197.662525 -82.64340375 192.17242876 -78.375 185.8125 C-60.64690784 160.10441442 -39.4741843 137.28764922 -12.0625 121.75 C-10.96164062 121.10675781 -9.86078125 120.46351563 -8.7265625 119.80078125 C1.6809786 113.88085542 12.74851247 109.72878033 23.95068359 105.56274414 C25.90267321 104.91374156 25.90267321 104.91374156 26.9375 103.75 C24.06565371 76.32093751 14.70568062 48.60472466 -6.90625 30.24609375 C-18.60946953 20.76981729 -32.62347588 14.4049369 -47.07421875 10.421875 C-50.71433305 9.19181673 -53.19593652 7.19839896 -55.15625 3.921875 C-56.82562681 -0.07887288 -56.81064261 -4.01486228 -56.0625 -8.25 C-54.00886952 -12.00697616 -51.3124185 -14.43924205 -47.75 -16.75 C-32.54687603 -19.57848818 -12.04899812 -8.11660806 0 0 Z "
     fill="#010100"
     transform="translate(387.0625,101.25)"
     id="path2" />
  <path
     d="M0 0 C0.75796875 0.61617188 1.5159375 1.23234375 2.296875 1.8671875 C3.13734375 2.54523438 3.9778125 3.22328125 4.84375 3.921875 C20.95244179 17.63867013 29.76371481 37.27483457 33.296875 57.8671875 C34.1399267 72.87350785 34.27838412 88.28739247 30.296875 102.8671875 C29.97420654 104.04958008 29.97420654 104.04958008 29.64501953 105.25585938 C22.19763743 131.48601438 8.20396826 155.60195869 -8.703125 176.8671875 C-9.77626953 178.2284375 -9.77626953 178.2284375 -10.87109375 179.6171875 C-21.67228838 193.07566718 -33.45574281 205.89150515 -47.046875 216.56591797 C-48.21689417 217.48516947 -49.38321659 218.40913549 -50.546875 219.33642578 C-82.58663862 244.8204342 -118.52621911 262.33281666 -157.703125 273.8671875 C-159.5893457 274.42841309 -159.5893457 274.42841309 -161.51367188 275.00097656 C-165.23515653 276.09313078 -168.96545057 277.14444142 -172.703125 278.1796875 C-174.42160645 278.67891724 -174.42160645 278.67891724 -176.17480469 279.18823242 C-177.23602539 279.47029541 -178.29724609 279.7523584 -179.390625 280.04296875 C-180.32261719 280.29989502 -181.25460937 280.55682129 -182.21484375 280.8215332 C-184.703125 280.8671875 -184.703125 280.8671875 -186.93261719 279.08300781 C-188.91402348 276.6032445 -190.42629945 274.08780883 -191.953125 271.3046875 C-195.44372349 265.14881642 -199.43252845 259.50215645 -203.703125 253.8671875 C-202.06739901 250.14235494 -199.72698449 247.22947911 -197.203125 244.0546875 C-176.49564823 217.50248013 -161.38418053 187.10178045 -154.94042969 153.95092773 C-153.18016559 144.90606195 -151.22242065 136.73337951 -147.23242188 128.41015625 C-137.1447264 107.25494499 -135.81775575 77.35060169 -143.1328125 55.046875 C-145.20446168 49.34516183 -147.56816078 43.77224052 -150.15234375 38.28515625 C-151.56021033 35.18217575 -152.6925705 32.11788743 -153.703125 28.8671875 C-148.453125 24.9296875 -148.453125 24.9296875 -146.81030273 23.70141602 C-144.09051595 21.66639127 -141.38238463 19.62008013 -138.69140625 17.546875 C-100.55403205 -11.67989775 -42.78268522 -32.302363 0 0 Z "
     fill="#FAFAFA"
     transform="translate(898.703125,293.1328125)"
     id="path3" />
  <path
     d="M0 0 C0.63631348 0.28182129 1.27262695 0.56364258 1.92822266 0.85400391 C18.83171619 8.45574882 33.68603802 19.34954634 48 31 C49.66578665 32.33443261 51.33213091 33.66817108 53 35 C51.60958553 39.51371004 49.78860331 43.58699956 47.6875 47.8125 C34.91388464 74.30654401 35.05747436 103.74877747 44.5234375 131.27734375 C45.67480708 134.35484432 47.09407834 137.26537961 48.5234375 140.22265625 C51.1315787 145.89780516 52.25061688 151.36773752 53.25 157.5 C59.51656223 191.57923581 74.10241847 224.72087496 96.98779297 250.92749023 C97.51260254 251.53794189 98.03741211 252.14839355 98.578125 252.77734375 C99.04637695 253.30577881 99.51462891 253.83421387 99.99707031 254.37866211 C101 256 101 256 101 260 C100.17724609 261.76416016 100.17724609 261.76416016 99.0234375 263.5390625 C98.60239746 264.19777344 98.18135742 264.85648438 97.74755859 265.53515625 C97.29461426 266.22480469 96.84166992 266.91445313 96.375 267.625 C95.45764159 269.05424374 94.54097428 270.4839313 93.625 271.9140625 C93.17640625 272.60918945 92.7278125 273.30431641 92.265625 274.02050781 C89.74930181 277.95614602 87.37748115 281.97954408 85 286 C29.91177136 275.48315635 -21.4480024 251.99480119 -62.8671875 213.9453125 C-64.93526661 212.05904255 -67.05275837 210.24756609 -69.1875 208.4375 C-72.48764864 205.55977038 -75.34999165 202.47295931 -78.17578125 199.1328125 C-80.10007349 196.88299759 -82.10835785 194.72974748 -84.125 192.5625 C-95.32773328 180.0832648 -104.65337897 166.51425693 -113 152 C-113.36963867 151.36916504 -113.73927734 150.73833008 -114.12011719 150.08837891 C-131.02811267 121.06428528 -140.54941898 85.14532155 -132 52 C-125.54646194 29.70833853 -112.98694775 12.00884761 -93 0 C-63.55271543 -16.05586374 -30.03033948 -13.57361814 0 0 Z "
     fill="#FAFAFA"
     transform="translate(227,288)"
     id="path4" />
  <path
     d="M0 0 C1.57587891 -0.00483398 1.57587891 -0.00483398 3.18359375 -0.00976562 C19.0714971 0.09824855 19.0714971 0.09824855 25.5 3.3125 C25.53867187 4.80523437 25.53867187 4.80523437 25.578125 6.328125 C26.61252058 34.83800457 34.97858888 61.96820668 54.5 83.3125 C55.26957031 84.16328125 56.03914062 85.0140625 56.83203125 85.890625 C75.54918269 105.60562135 102.4774008 116.87993981 129.515625 117.61328125 C131.92700822 117.63271063 134.33856481 117.63626313 136.75 117.625 C138.02125732 117.61936035 139.29251465 117.6137207 140.60229492 117.60791016 C163.71831428 117.31036119 181.36749954 110.98002836 200.5 98.3125 C201.16 97.9825 201.82 97.6525 202.5 97.3125 C201.05314971 102.0476464 199.10951738 106.40760117 196.875 110.8125 C196.52163574 111.51028564 196.16827148 112.20807129 195.80419922 112.92700195 C187.5275277 129.12615484 178.05200116 143.10405504 165.5 156.3125 C165.02191895 156.8178125 164.54383789 157.323125 164.05126953 157.84375 C128.56158821 195.11407484 80.38953684 211.87848795 30.08227539 217.04638672 C28.42639396 217.21703159 26.77169713 217.39986946 25.11889648 217.59814453 C17.65354327 218.45549069 10.1958947 218.55587547 2.6875 218.5625 C1.99358154 218.56317474 1.29966309 218.56384949 0.5847168 218.56454468 C-53.59946801 218.48191858 -111.91901564 204.63791521 -151.83837891 165.92285156 C-153.01963607 164.77804224 -154.20753049 163.64006418 -155.39990234 162.50683594 C-164.88586022 153.47761787 -173.30587727 144.273727 -180.5 133.3125 C-180.8923584 132.71646973 -181.2847168 132.12043945 -181.68896484 131.50634766 C-186.58068948 123.96092895 -190.72517823 116.09857396 -194.625 108 C-195.02799316 107.16887695 -195.43098633 106.33775391 -195.84619141 105.48144531 C-196.20890137 104.70768555 -196.57161133 103.93392578 -196.9453125 103.13671875 C-197.43281982 102.10164185 -197.43281982 102.10164185 -197.93017578 101.0456543 C-198.5 99.3125 -198.5 99.3125 -197.5 97.3125 C-196.87996094 97.80878906 -196.25992187 98.30507813 -195.62109375 98.81640625 C-177.41612341 112.78149995 -157.2027392 117.48836728 -134.4375 117.5 C-133.20322266 117.51224609 -131.96894531 117.52449219 -130.69726562 117.53710938 C-105.51318111 117.57664483 -82.12696747 110.30710491 -62.5 94.3125 C-61.66082031 93.63703125 -60.82164062 92.9615625 -59.95703125 92.265625 C-40.26126411 75.53185695 -27.5586428 49.79254975 -24.5 24.3125 C-24.25232698 20.66892342 -24.08963195 17.02367295 -23.9375 13.375 C-23.87272461 11.9199707 -23.87272461 11.9199707 -23.80664062 10.43554688 C-23.70137907 8.06131399 -23.59924293 5.68699079 -23.5 3.3125 C-15.53665453 0.69989795 -8.35554493 -0.12815253 0 0 Z "
     fill="#F6BD28"
     transform="translate(510.5,372.6875)"
     id="path5" />
  <path
     d="M0 0 C3.12611133 1.40640198 5.37550232 3.11357188 7.9375 5.375 C67.89226007 53.81352317 162.48749715 56.37372988 236 49 C282.08621518 43.80925097 331.00843787 30.43526107 367 0 C378.60625943 14.19341323 386.44169826 36.65757234 388.40234375 54.703125 C388 58 388 58 386.04296875 60.265625 C385.10066406 60.92046875 384.15835937 61.5753125 383.1875 62.25 C382.65616455 62.6207666 382.1248291 62.9915332 381.57739258 63.37353516 C379.74218067 64.62388795 377.87976037 65.81771989 376 67 C375.319375 67.42829102 374.63875 67.85658203 373.9375 68.29785156 C323.51190602 99.51695798 262.87964729 114.04100451 203.82421875 114.203125 C203.11266947 114.20595238 202.40112019 114.20877975 201.6680088 114.21169281 C197.88454462 114.22659218 194.10111749 114.23587368 190.31762695 114.24023438 C187.26476775 114.24457059 184.21219892 114.25828438 181.15942383 114.28125 C114.23476083 114.77402856 47.94660746 101.73324797 -9 65 C-9.91265625 64.43369873 -9.91265625 64.43369873 -10.84375 63.85595703 C-12.36035384 62.90405562 -13.83889443 61.89219718 -15.3125 60.875 C-16.07175781 60.35679687 -16.83101563 59.83859375 -17.61328125 59.3046875 C-20.30659404 54.82847752 -18.5545424 49.52978717 -17.4855957 44.65332031 C-16.88617654 42.3081844 -16.21277732 40.00065521 -15.5 37.6875 C-15.24371826 36.84300293 -14.98743652 35.99850586 -14.72338867 35.12841797 C-10.91168042 23.02927516 -5.7884191 11.28282326 0 0 Z "
     fill="#F6BD28"
     transform="translate(328,590)"
     id="path6" />
  <path
     d="M0 0 C1.1461377 0.00491455 2.29227539 0.0098291 3.47314453 0.01489258 C19.37022282 0.23409285 36.31551701 2.94561066 48.3125 14.3125 C71.43954334 38.12242847 77.34360038 77.56461089 77.94906616 109.30154419 C77.98247158 110.86639478 78.02860475 112.43103655 78.08877563 113.99508667 C78.5927342 128.18644505 74.54282999 137.74639441 65.875 149 C49.91796131 165.55035324 26.7841378 177.14075725 3.85351562 177.78051758 C-21.73074313 178.02005002 -45.24252031 170.53992663 -64.26464844 152.7265625 C-80.83457468 136.25898995 -89.73094386 112.66953085 -90 89.5625 C-89.86769851 64.33260621 -79.85771297 42.16158652 -62.41796875 23.94140625 C-45.51150462 7.76391072 -23.16500644 -0.11737299 0 0 Z "
     fill="#F6BD29"
     transform="translate(648.6875,291.6875)"
     id="path7" />
  <path
     d="M0 0 C18.58432598 14.89634258 29.96782665 35.96596968 33.1796875 59.5859375 C34.79613167 85.18953772 28.3687818 109.40581458 11.3515625 129.1640625 C10.63484375 129.96328125 9.918125 130.7625 9.1796875 131.5859375 C8.62796875 132.22015625 8.07625 132.854375 7.5078125 133.5078125 C-7.19556563 149.37581464 -29.54172729 157.98773953 -50.83984375 158.9296875 C-78.36364644 159.6002682 -100.66684143 149.83182338 -120.8828125 131.2109375 C-134.13037705 117.03371929 -134.51675878 101.61102349 -133.99951172 83.14453125 C-132.51842316 53.73261461 -124.87736925 14.11740619 -101.8828125 -6.9609375 C-72.31647648 -27.79176515 -27.39834126 -21.11782877 0 0 Z "
     fill="#F6BD29"
     transform="translate(431.8203125,310.4140625)"
     id="path8" />
  <path
     d="M0 0 C0.64324219 0.4125 1.28648437 0.825 1.94921875 1.25 C4.9610287 3.17480864 7.98027762 5.08763058 11 7 C11.97582031 7.62519531 12.95164062 8.25039063 13.95703125 8.89453125 C46.0788272 29.14074667 81.91700368 41.466613 119 49 C119.96131836 49.19577637 120.92263672 49.39155273 121.91308594 49.59326172 C168.45350492 58.79049674 217.1575619 58.4745811 264 52 C265.13679199 51.85046875 266.27358398 51.7009375 267.44482422 51.546875 C315.16486784 45.14567679 362.88661347 28.2424872 402 0 C403.55223005 3.1044601 402.26650294 5.90740869 401.4375 9.125 C401.2533252 9.84075195 401.06915039 10.55650391 400.87939453 11.29394531 C395.9342816 29.84726136 387.80635337 47.62662595 376.8125 63.375 C376.33796387 64.05812256 375.86342773 64.74124512 375.37451172 65.44506836 C370.08242414 72.73786765 363.73701759 77.53061048 355.875 81.8125 C355.09568115 82.23845459 354.3163623 82.66440918 353.51342773 83.10327148 C321.60228924 100.18982437 286.66539339 109.14236875 251 114 C250.14083984 114.12004395 249.28167969 114.24008789 248.39648438 114.36376953 C180.76805183 123.3177313 92.81973966 115.82989146 36 75 C16.66076062 58.78529759 3.13564139 24.54450331 0 0 Z "
     fill="#F6BD28"
     transform="translate(311,719)"
     id="path9" />
  <path
     d="M0 0 C0.93328125 0.16628906 1.8665625 0.33257812 2.828125 0.50390625 C44.88022247 8.01320937 83.54945571 23.39249414 114 54 C113.36400879 53.93071289 112.72801758 53.86142578 112.07275391 53.79003906 C79.67493982 50.5229349 46.39874199 53.45022676 20.0625 74.4375 C18.35207293 75.93250151 16.66403061 77.45352258 15 79 C14.12730469 79.804375 13.25460937 80.60875 12.35546875 81.4375 C6.74401423 86.82180419 2.17839262 92.45316205 -2 99 C-2.75023437 100.11568359 -2.75023437 100.11568359 -3.515625 101.25390625 C-10.26778246 111.75528798 -14.79242825 123.97813869 -18 136 C-18.67264893 135.85780029 -19.34529785 135.71560059 -20.03833008 135.5690918 C-28.22846308 134.00505385 -36.20915992 133.72208957 -44.51000977 133.79418945 C-46.69494244 133.81256258 -48.87945075 133.81469745 -51.06445312 133.81445312 C-58.10253829 133.83272297 -65.01779796 134.02045426 -72 135 C-72.61875 133.20369141 -72.61875 133.20369141 -73.25 131.37109375 C-83.92628657 101.00089941 -101.18213578 77.42749432 -130.69702148 62.75073242 C-146.73064293 55.22583848 -164.18493104 52.63993727 -181.75 52.8125 C-183.01199219 52.81314453 -184.27398437 52.81378906 -185.57421875 52.81445312 C-191.80383656 52.84386895 -197.84300503 53.03313521 -204 54 C-198.46095986 46.66891746 -191.32687075 41.4141879 -184 36 C-183.43700195 35.5781543 -182.87400391 35.15630859 -182.29394531 34.72167969 C-155.89468794 15.18219407 -123.87682251 5.81507947 -92 0 C-90.58871826 -0.26901123 -90.58871826 -0.26901123 -89.14892578 -0.54345703 C-60.8503599 -5.74262796 -28.22253862 -5.48052355 0 0 Z "
     fill="#F6BD29"
     transform="translate(557,218)"
     id="path10" />
  <path
     d="M0 0 C10.44555732 7.37535246 16.18342223 17.51400011 18.56640625 29.9765625 C20.43679351 43.01872228 17.03615171 54.70380078 9.3203125 65.30859375 C2.29629455 73.950176 -7.92026078 80.24230766 -19 82 C-33.32613711 83.25392885 -43.95590174 80.20971892 -55 71 C-63.6798036 63.02629154 -69.24776682 51.79172527 -70.25 40.078125 C-70.77843795 26.27268364 -66.51475268 15.14774481 -57.19140625 5.0390625 C-40.78572274 -10.58214966 -18.82709341 -11.65632039 0 0 Z "
     fill="#010000"
     transform="translate(650,347)"
     id="path11" />
  <path
     d="M0 0 C11.84028188 7.87734601 17.98797308 18.73225749 21.109375 32.33984375 C22.63872466 43.19416612 19.95088855 54.57317669 13.921875 63.71484375 C7.02403335 72.65268537 -1.1591843 78.76269685 -11.890625 82.33984375 C-27.77001719 83.82361219 -41.05901942 81.2524111 -53.890625 71.33984375 C-62.33965473 63.65745566 -67.30031995 53.26809461 -68.14453125 41.9296875 C-68.54138323 29.34563921 -65.77166403 19.22940001 -57.890625 9.33984375 C-57.40078125 8.72496094 -56.9109375 8.11007812 -56.40625 7.4765625 C-42.30414868 -8.26612982 -17.77296309 -10.20744502 0 0 Z "
     fill="#010000"
     transform="translate(424.890625,345.66015625)"
     id="path12" />
  <path
     d="M0 0 C1.30589333 -0.01073296 1.30589333 -0.01073296 2.63816833 -0.02168274 C3.59559937 -0.02437164 4.5530304 -0.02706055 5.53947449 -0.02983093 C6.54610641 -0.03640213 7.55273834 -0.04297333 8.58987427 -0.04974365 C11.93139209 -0.06950448 15.27286494 -0.08114503 18.61442566 -0.09111023 C19.75373724 -0.09518576 20.89304882 -0.09926128 22.06688499 -0.10346031 C28.09615779 -0.12433222 34.12540773 -0.1386295 40.15470886 -0.147995 C46.38933778 -0.15906605 52.62361043 -0.19347113 58.85811329 -0.23316669 C63.64590123 -0.25928284 68.43360362 -0.26768236 73.22145653 -0.27127647 C75.51999507 -0.2761548 77.81852949 -0.28780401 80.11699867 -0.30631447 C83.33233181 -0.33060053 86.54673441 -0.32975993 89.76213074 -0.32279968 C91.18916824 -0.34201477 91.18916824 -0.34201477 92.64503479 -0.36161804 C96.904045 -0.32797534 99.23010328 -0.227395 102.9357605 2.03030396 C105.90782527 5.32575955 105.47300925 7.75286699 105.26286316 12.01826477 C103.36397398 26.23331367 97.01679413 39.06892993 85.84489441 48.14717102 C72.82278414 57.24283587 55.8787396 62.9213171 39.84489441 61.14717102 C24.82496648 58.4247124 13.77490862 53.05850145 2.84489441 42.14717102 C2.18360535 41.49748352 1.52231628 40.84779602 0.84098816 40.17842102 C-7.50066106 31.38635878 -11.7535048 19.41947871 -11.54963684 7.35420227 C-11.15510559 5.14717102 -11.15510559 5.14717102 -8.78010559 2.58467102 C-5.47841728 0.77660361 -3.73265671 0.02102763 0 0 Z "
     fill="#000000"
     transform="translate(465.1551055908203,487.8528289794922)"
     id="path13" />
  <path
     d="M0 0 C0.66 0.99 1.32 1.98 2 3 C0.6875 6.25 0.6875 6.25 -0.17578125 7.890625 C-2.84176775 14.71352884 -2.31264498 22.73266424 -2.5625 29.9375 C-2.60568359 31.09830078 -2.64886719 32.25910156 -2.69335938 33.45507812 C-2.79884842 36.30328232 -2.90096555 39.15156529 -3 42 C-5.25675072 37.94133014 -5.34433001 34.31133682 -5.3125 29.75 C-5.30976074 28.96093262 -5.30702148 28.17186523 -5.30419922 27.35888672 C-5.14935435 18.4472976 -4.530476 7.83969326 0 0 Z "
     fill="#E7C92C"
     transform="translate(564,352)"
     id="path14" />
  <path
     d="M0 0 C1.79639296 1.09646058 3.58697154 2.20245148 5.375 3.3125 C6.37273437 3.92738281 7.37046875 4.54226563 8.3984375 5.17578125 C11 7 11 7 13 10 C10.03 9.505 10.03 9.505 7 9 C7.53615774 13.28926193 9.19224164 16.50531854 11.2578125 20.23046875 C11.50273437 20.81441406 11.74765625 21.39835937 12 22 C11.67 22.66 11.34 23.32 11 24 C9.34357236 20.94311771 7.70178208 17.87860605 6.0625 14.8125 C5.35963867 13.51602539 5.35963867 13.51602539 4.64257812 12.19335938 C4.19462891 11.35224609 3.74667969 10.51113281 3.28515625 9.64453125 C2.66459351 8.48981323 2.66459351 8.48981323 2.03149414 7.31176758 C0.94565167 4.87819542 0.4240867 2.62365602 0 0 Z "
     fill="#F1D030"
     transform="translate(312,470)"
     id="path15" />
  <path
     d="M0 0 C0 3.86695678 -1.41909971 6.5088452 -3 10 C-7 10 -7 10 -11 8 C-7.37 5.36 -3.74 2.72 0 0 Z "
     fill="#EFC92E"
     transform="translate(712,470)"
     id="path16" />
  <path
     d="M0 0 C1.7541123 1.07666203 3.50312587 2.16163339 5.25 3.25 C6.71179688 4.15492188 6.71179688 4.15492188 8.203125 5.078125 C10.79705245 6.86054442 12.86377619 8.70101628 15 11 C11.2089881 9.55049545 7.6125362 7.84827434 4 6 C3.67 6.66 3.34 7.32 3 8 C2.34 7.67 1.68 7.34 1 7 C0.59270772 4.67843403 0.25561323 2.3431213 0 0 Z "
     fill="#F2D02E"
     transform="translate(311,719)"
     id="path17" />
  <path
     d="M0 0 C0.33 0.66 0.66 1.32 1 2 C-0.56215548 2.16986545 -2.1247452 2.33573964 -3.6875 2.5 C-4.99267578 2.63921875 -4.99267578 2.63921875 -6.32421875 2.78125 C-8.89723339 2.99159864 -11.41984364 3.03719144 -14 3 C-9.41201726 -0.05865516 -5.43293781 -0.12634739 0 0 Z "
     fill="#F2CE2B"
     transform="translate(601,634)"
     id="path18" />
  <path
     d="M0 0 C2.05129241 1.02564621 4.09797888 2.05187117 6.125 3.125 C7.95720802 4.14096182 7.95720802 4.14096182 10 4 C10.66 5.65 11.32 7.3 12 9 C7.09198451 7.51272258 3.59508707 4.55364515 0 1 C0 0.67 0 0.34 0 0 Z "
     fill="#F6D530"
     transform="translate(588,446)"
     id="path19" />
  <path
     d="M0 0 C0.66 0.33 1.32 0.66 2 1 C1.21625 1.721875 0.4325 2.44375 -0.375 3.1875 C-2.84412438 5.83299041 -3.93260278 7.60373611 -5 11 C-5.99 10.34 -6.98 9.68 -8 9 C-5.36 6.03 -2.72 3.06 0 0 Z "
     fill="#F2D02E"
     transform="translate(586,316)"
     id="path20" />
  <path
     d="M0 0 C2.375 1.1875 2.375 1.1875 3.375 3.1875 C-0.255 2.8575 -3.885 2.5275 -7.625 2.1875 C-4.97646037 -0.46103963 -3.62806038 -1.12297107 0 0 Z "
     fill="#E3C22B"
     transform="translate(667.625,268.8125)"
     id="path21" />
  <path
     d="M0 0 C1.10740461 3.32221382 0.97233311 5.64103108 0 9 C-0.66 9.66 -1.32 10.32 -2 11 C-1.85892253 9.54119891 -1.71197585 8.08296449 -1.5625 6.625 C-1.48128906 5.81289063 -1.40007812 5.00078125 -1.31640625 4.1640625 C-1 2 -1 2 0 0 Z "
     fill="#F1CF2D"
     transform="translate(313,627)"
     id="path22" />
  <path
     d="M0 0 C0.33 0.66 0.66 1.32 1 2 C0.0625 4.125 0.0625 4.125 -1 6 C-2.32 5.34 -3.64 4.68 -5 4 C-3.35 2.68 -1.7 1.36 0 0 Z "
     fill="#FADC2F"
     transform="translate(713,719)"
     id="path23" />
</svg>
